<?xml version="1.0" encoding="UTF-8" standalone="no"?>
<svg
   xmlns:dc="http://purl.org/dc/elements/1.1/"
   xmlns:cc="http://creativecommons.org/ns#"
   xmlns:rdf="http://www.w3.org/1999/02/22-rdf-syntax-ns#"
   xmlns:svg="http://www.w3.org/2000/svg"
   xmlns="http://www.w3.org/2000/svg"
   id="svg6"
   version="1.1"
   viewBox="-18 -86 96 116"
   height="116"
   width="96">
  <metadata
     id="metadata12">
    <rdf:RDF>
      <cc:Work
         rdf:about="">
        <dc:format>image/svg+xml</dc:format>
        <dc:type
           rdf:resource="http://purl.org/dc/dcmitype/StillImage" />
        <dc:title>OpenSCAD Model</dc:title>
      </cc:Work>
    </rdf:RDF>
  </metadata>
  <defs
     id="defs10" />
  <title
     id="title2">OpenSCAD Model</title>
  <path
     style="fill:#d3d3d3;stroke:#000000;stroke-width:0.5"
     id="path4"
     d="M 71.7467,29.5247 72.258,29.1509 72.8049,26.2582 72.751,26.1626 72.5415,25.8106 70.6223,25.3713 66.6567,24.8676 66.081,24.4856 62.1563,18.009 61.9644,16.7162 63.613,8.56133 64.3039,7.38586 70.5852,2.20555 71.7567,1.84511 76.9438,2.50395 77.344,2.24873 77.9018,-0.701385 77.5779,-1.31911 76.8792,-1.74893 75.639,-2.44363 74.9863,-2.64812 74.669,-2.7048 l -1.2324,-0.09413 -0.8077,-0.0136 -0.331,-0.19469 -0.3395,-0.45755 -0.1665,-0.66079 -0.0146,-0.51229 0.1815,-0.61137 0.9739,-0.86696 0.9099,-0.98438 0.532,-0.62822 0.7984,-1.03967 0.7065,-1.11491 0.6093,-1.18164 0.5074,-1.2394 0.4017,-1.2878 0.165,-0.747 0.0531,-0.6299 0.0487,-1.4101 -0.0138,-0.8623 -0.6964,-5.2935 -0.1534,-0.6253 0.0904,-0.3276 0.1052,-0.391 0.0093,-0.8554 -0.0011,-0.1349 -0.0109,-0.0404 -0.2934,-0.855 -0.022,-0.0432 -0.2931,-0.5302 -0.3622,-0.4302 -0.112,-0.1243 -0.0798,-0.0562 -0.3583,-0.3582 -0.3477,-0.2079 -0.2132,-0.2211 -0.2251,-0.1252 -0.0977,-0.1461 -0.8863,-1.1032 -0.9454,-0.9958 -1.0188,-0.9086 -1.0846,-0.8146 -1.142,-0.7143 -1.1907,-0.6086 -1.2305,-0.4983 -1.2608,-0.3841 -1.2815,-0.267 -0.8182,-0.1456 -1.3301,-0.1523 -1.3314,-0.0286 -1.3223,0.0954 -1.3034,0.2185 -1.1891,0.3196 -0.6351,-0.1325 -0.5199,-0.2271 -0.7924,-0.6135 -0.7925,-0.9656 -0.4031,-0.7321 -0.1032,-0.2547 -0.0588,-0.3088 0.0037,-0.3133 0.2552,-0.3831 0.6162,-1.1497 0.1269,-0.2838 0.5029,-1.203 0.386,-1.247 0.266,-1.2817 0.1441,-1.3066 0.021,-1.3215 -0.0633,-0.9012 -0.0993,-1.2888 -0.2182,-1.2837 -0.3356,-1.2689 -0.4504,-1.2444 -0.5616,-1.2104 -0.6688,-1.1672 -0.7707,-1.1151 -0.8668,-1.0546 -0.9563,-0.986 -1.0385,-0.9098 -1.1128,-0.8269 -1.1788,-0.7376 -1.2355,-0.6426 -1.2831,-0.5428 -1.3208,-0.4389 -1.3484,-0.3316 -0.0524,-0.0087 -0.1784,-0.1535 -0.3341,-0.3948 -0.2832,-0.5656 -0.2379,-0.8139 -0.095,-0.5312 -0.2191,-1.7063 -0.175,-1.3906 -0.1985,-1.3717 -0.0661,-0.615 -0.1943,-1.343 -0.1692,-1.2381 -0.1774,-1.2666 -0.2192,-1.6315 -0.073,-0.6606 0.6758,-0.0987 1.1882,-0.2629 1.1262,-0.3428 1.0557,-0.42 0.9554,-0.483 0.0464,-0.0531 1.5119,-1.8535 0.3812,-0.6789 0.0297,-0.0807 0.7875,-2.3777 -0.0646,-0.5547 -0.0269,-0.1913 -1.7028,-1.595 -0.4436,0.1119 -5.8551,2.6327 -1.2943,0.0987 -8.2026,-1.6715 -1.3774,-0.6862 -1.0198,-0.96 -0.2343,-0.1864 -1.7864,1.2611 -0.2519,0.6407 -0.0983,2.3292 0.0389,0.4495 0.0254,0.2312 0.5383,1.9795 0.2879,0.166 1.222,0.6087 1.2692,0.5413 1.3067,0.4698 1.3343,0.3946 1.2349,0.2892 0.032,0.0327 0.2735,0.4484 0.2094,0.5365 0.1915,0.9354 0.1785,1.1413 0.1504,1.149 0.1931,1.2819 0.2212,1.504 0.1863,1.4146 0.1105,0.7148 0.1521,1.3437 0.1871,1.4048 0.0823,0.5722 0.0295,0.6067 -0.045,0.5945 -0.0633,0.3183 -0.1564,0.3013 -0.0407,0.04 -1.2216,0.4317 -1.1992,0.5465 -1.1362,0.6462 -1.0648,0.7409 -0.6994,0.5422 -1.0139,0.8542 -0.9242,0.9394 -0.8276,1.0173 -0.7246,1.0877 -0.6161,1.1497 -0.1269,0.2838 -0.503,1.203 -0.3859,1.2471 -0.1107,0.523 -0.1434,0.1983 -0.4131,0.3836 -0.762,0.3005 -1.1442,0.191 -1.3852,0.1398 -1.5815,0.1788 -1.6892,0.1819 -2.7826,0.3201 -1.6783,0.2224 -2.1434,0.3352 -2.42994,0.3745 -1.03101,0.0763 -0.61912,-0.0558 -0.61095,-0.21 -0.03343,-0.0137 -0.33188,-0.2837 -0.29868,-0.5056 -0.78669,-1.1013 -0.53843,-0.623 -0.32279,-0.3496 -0.72577,-0.3684 -0.49036,-0.2267 -0.412,0.2574 -1.319141,3.0712 -0.008834,0.1759 -0.028397,0.4529 2.532582,4.8345 0.10394,1.3554 -2.538408,7.8717 -0.891983,1.0885 -7.271299,4.0986 -0.20655,0.0278 -0.35931,0.276 -1.08578,2.5279 0.05339,0.5775 1.05075,0.9801 0.3089,0.1149 0.35069,-0.0044 0.1304,0.0967 0.37071,0.1261 0.5508,0.4023 0.28303,0.4091 0.25361,0.508 0.03694,0.1337 -0.06461,0.0745 -0.43799,0.7616 -0.28975,0.8375 -0.13038,0.8813 0.03398,0.8912 0.19705,0.8668 0.35257,0.8092 0.49449,0.7203 0.61745,0.604 0.71667,0.4643 0.78835,0.3067 0.47472,0.0787 0.15858,0.1583 0.1272,0.1436 0.25071,0.4352 0.19478,0.6136 0.07474,0.5316 -0.08292,0.3867 -0.2485,0.3812 -1.00881,0.9933 -0.91879,1.07942 -0.78515,1.10761 -0.38594,0.21214 -0.73771,0.10219 -0.16043,-0.00618 -0.59991,-0.16007 -1.65543,-0.63925 -1.31586,-0.37872 -0.6667,-0.1586 -0.1968,-0.03902 -0.085,-0.00616 -0.0679,-8.4e-4 -0.3461,-0.0266 -0.201,0.01885 -0.2191,0.01654 -0.0615,0.01741 -0.2339,0.09982 -0.1766,0.13001 -0.1544,0.07777 -0.1299,0.10156 -0.1317,0.15547 -0.154,0.17832 -0.2481,0.3611 -0.2469,0.54771 -0.0113,0.02789 -0.0141,0.06229 -0.1168,0.44888 -0.0121,0.16193 -0.0061,0.4175 0.0246,0.16847 0.0453,0.21698 0.0901,0.22699 0.0645,0.15278 0.0986,0.11925 0.1292,0.1689 0.218,0.12389 0.0923,0.05682 0.857,0.20221 0.873,0.24518 0.5538,0.2708 0.351,0.29191 0.3401,0.47814 0.04658,0.44159 -0.13828,0.39367 -0.4317,0.35605 -0.7225,0.07723 -0.151,-0.00991 -1.043,-0.22429 -0.2936,-0.05413 -0.4994,-0.02643 -0.1899,0.0236 -0.2446,0.06118 -0.0622,0.00431 -0.267,0.13547 -0.0661,0.02393 -0.0549,0.03257 -0.3798,0.34606 -0.0936,0.119 -0.2245,0.30326 -0.0498,0.0894 -0.2087,0.40626 -0.1316,0.35628 -0.0397,0.11702 -0.0325,0.209609 -0.0721,0.325866 3e-4,0.194352 -0.0558,0.532684 0.0157,0.167618 0.1207,0.588591 0.0056,0.24773 -4e-4,0.1931 0.008,0.07097 -0.4561,0.35336 -0.5694,0.65639 -0.438,0.76158 -0.2707,0.76211 -0.1495,0.95671 0.034,0.89119 0.1971,0.86683 0.3526,0.80914 0.4945,0.7204 0.6174,0.60392 0.7167,0.4643 0.7883,0.30678 0.8298,0.13748 2.9958,0.02762 0.83917,-0.03708 0.81647,-0.21024 0.76233,-0.37529 0.67889,-0.52595 0.36237,-0.42084 0.23781,0.03984 0.32545,0.12442 0.03214,0.02303 0.44446,0.8029 0.79846,1.18827 0.897,1.1141 0.98866,1.0315 1.07283,0.941 1.148853,0.8433 1.216049,0.7393 1.274098,0.6295 1.32237,0.5151 1.36062,0.3966 1.38851,0.2752 1.40581,0.1517 1.41241,0.027 1.40834,-0.0978 1.3934,-0.2221 1.368,-0.3444 0.1283,-0.0376 1.3321,-0.4643 1.2861,-0.5806 1.2303,-0.6925 1.1652,-0.7991 1.0911,-0.8996 1.0088,-0.9933 0.9188,-1.0794 0.8218,-1.15727 0.7186,-1.22641 0.6098,-1.28616 0.4965,-1.33614 0.3793,-1.37594 0.2593,-1.40529 0.1372,-1.42392 0.0135,-1.420946 0.1692,-0.473007 0.446,-0.566864 0.2475,-0.214264 0.1383,-0.100479 0.5604,-0.32292 0.2788,-0.12374 0.7231,-0.3012 1.4462,-0.45804 1.4771,-0.48306 1.5471,-0.46546 1.2972,-0.36316 1.2948,-0.17621 0.8652,0.0261 0.1833,0.03663 0.8556,0.34209 0.9083,0.16371 0.9253,-0.03375 0.9027,-0.22986 0.8402,-0.4158 0.7415,-0.58379 0.6098,-0.72604 0.4517,-0.83664 0.1525,-0.50701 0.4818,-0.249 0.6656,-0.28807 2.1397,-0.81337 1.4204,-0.55738 1.4566,-0.51278 0.5415,-0.0781 0.8679,0.04488 0.3893,0.15497 0.1975,0.291 0.8636,1.07397 0.9442,0.99452 1.0175,0.90749 1.0832,0.81352 1.1405,0.71338 1.1893,0.60782 0.2964,0.12562 0.1988,0.33962 0.0152,0.10686 -0.1129,0.08891 -0.6098,0.72604 -0.4517,0.83664 -0.2739,0.910693 -0.0607,0.413513 -0.0234,0.531372 0.1098,0.937502 0.298,0.89032 0.4737,0.80267 0.6288,0.68082 0.7563,0.52904 0.5144,0.21409 0.0796,0.06594 0.2215,0.21667 0.3412,0.50919 0.2263,0.53189 -0.5434,1.09007 -0.5237,1.28906 -0.4261,1.3225 -0.3251,1.34586 -0.2217,1.359 -0.1166,1.3619 -0.0107,1.3542 0.0954,1.3363 0.2007,1.3083 0.3046,1.2703 0.406,1.2227 0.5044,1.1656 0.599,1.0998 0.6889,1.0255 0.7737,0.9436 0.8526,0.8543 0.8892,0.8789 0.9531,0.7817 1.0205,0.6771 1.08,0.5674 0.3628,0.1527 1.1313,0.4534 1.174,0.3359 1.2079,0.2158 1.032,0.0788 0.4511,0.0195 0.9349,0.0158 z m -37.093,-66.8486 -1.1202,-0.701 -4.9836,-6.6032 -0.3165,-1.24 1.1896,-7.5078 0.2517,-0.3778 5.7858,-3.6462 1.7926,-0.304 8.3716,1.7266 1.5893,0.9945 5.0736,6.6867 0.1748,0.6609 -1.0716,6.7631 -0.5506,0.8266 -6.6273,4.1764 -1.3458,0.2283 z m -12.0843,29.3689 -0.4738,-0.17604 -0.5044,-0.32219 -0.4267,-0.62753 -0.897,-1.11414 -0.9886,-1.0315 -1.0729,-0.9409 -1.1488,-0.8434 -1.2161,-0.7392 -1.2741,-0.6296 -1.3224,-0.515 -1.3606,-0.3967 -1.3885,-0.2752 -1.40579,-0.1517 -1.41242,-0.027 -1.40831,0.0979 -0.59649,0.0957 -0.7253,-0.2502 -0.39809,-0.3153 -0.23376,-0.3753 -0.08336,-0.2043 0.02293,-0.0408 0.28977,-0.8375 0.13038,-0.8813 -0.03399,-0.8912 -0.19705,-0.8668 -0.35256,-0.8091 -0.49451,-0.7204 -0.61744,-0.604 -0.71666,-0.4643 -0.78835,-0.3067 -0.10209,-0.0156 -0.08477,-0.0695 -0.380383,-0.498 -0.374283,-0.7105 -0.150467,-0.4754 0.020172,-0.8667 0.138108,-0.3357 0.760923,-0.5634 1.04618,-0.9169 0.96742,-1 0.8813,-1.0755 0.7885,-1.1426 0.68965,-1.2012 0.5856,-1.2506 0.47707,-1.2905 0.3649,-1.3205 0.24996,-1.3405 0.13312,-1.3503 0.00441,-0.4128 0.11679,-0.2182 0.41947,-0.5 0.51678,-0.4089 0.14688,-0.0795 0.84726,-0.3277 0.4833,-0.1163 1.6694,-0.274 1.7125,-0.2287 3.0204,-0.4086 2.5944,-0.292 1.6121,-0.1676 0.9529,-0.092 1.1664,-0.0312 0.434,0.0465 0.9716,0.3003 0.5544,0.4275 0.2245,0.6325 0.5609,1.2088 0.6679,1.1657 0.7697,1.1137 0.8657,1.0532 0.9551,0.9847 1.0372,0.9088 1.1114,0.8258 1.1772,0.7366 1.234,0.6418 1.2814,0.5421 1.319,0.4383 1.3468,0.3312 1.364,0.2215 1.3711,0.1102 1.3677,-0.0021 1.3537,-0.1142 1.3297,-0.2255 1.2953,-0.3351 1.2513,-0.4422 0.8694,-0.3966 0.2328,0.0228 0.6974,0.1895 0.6516,0.4245 0.4869,0.6016 0.3084,0.713 0.0612,0.3982 -0.0478,0.6946 -0.0349,0.0497 -0.7973,1.0383 -0.7056,1.1135 -0.6085,1.1801 -0.5068,1.2378 -0.4012,1.2861 -0.2926,1.3246 -0.1817,1.353 -0.0695,1.371 0.0433,1.3788 0.1201,1.0448 -0.2657,0.3521 -0.3357,0.4032 -0.6186,0.414 -0.9965,0.4755 -2.4009,0.962 -2.228,0.7894 -1.0749,0.2766 -0.9771,0.1025 -0.0628,0.0031 -0.5603,-0.0238 -0.3937,-0.1575 -0.908,-0.1638 -0.9256,0.0338 -0.9022,0.2298 -0.8408,0.416 -0.7413,0.5837 -0.6099,0.726 -0.3663,0.6784 -0.08,0.0651 -0.4611,0.2359 -1.5201,0.5901 -0.8712,0.2581 -1.2506,0.38698 -1.8946,0.60262 -1.1733,0.30458 -0.6724,0.06572 z m 35.5816,0.36922 -1.0854,-0.67891 -4.9981,-6.76291 -0.3616,-1.3161 0.7573,-8.2125 0.5908,-1.1696 6.0807,-4.9765 0.4762,-0.1202 7.0533,1.1373 1.1375,0.7115 2.9551,3.9779 1.8595,1.7052 0.8898,1.2039 0.3808,1.3552 -0.4532,4.9145 -0.7417,4.0303 -0.1471,0.2167 -0.272,0.5275 -5.4854,4.48935 -0.8513,0.22719 z m -59.28709,-10.48612 -0.11109,-0.5346 0.04991,-0.545 0.11112,-0.2707 0.02186,0.0394 0.111104,0.5346 -0.049924,0.545 -0.1111,0.2708 z M 1.28993,11.44 0.161514,10.6116 -4.25363,3.38786 -4.48077,1.99832 l 1.88929,-8.22824 0.79306,-1.11685 6.78522,-4.22483 1.33357,-0.1963 8.04333,1.96568 1.1009,0.79129 4.3938,7.18091 0.2271,1.389529 -1.8684,8.137241 -0.8072,1.13673 -7.0086,4.36392 -1.16241,0.1852 z M 35.6149,-7.17924 35.5394,-7.74583 35.5711,-8.03244 35.6484,-8.31082 35.93,-8.813 l 0.4238,-0.38495 0.3642,-0.15828 0.1625,0.53288 -0.017,0.57361 -0.198,0.54097 -0.3576,0.44969 -0.4784,0.30971 -0.0893,0.02222 z M 59.6896,1.84799 59.6141,1.2814 59.6458,0.994797 59.7231,0.716415 60.0047,0.214233 60.4285,-0.1707 l 0.3641,-0.158295 0.1625,0.532883 -0.017,0.573608 -0.198,0.540974 -0.3575,0.44969 -0.4784,0.30971 -0.0894,0.02221 z m -71.1258,4.08885 -0.1111,-0.53453 0.0499,-0.54499 0.1111,-0.27079 0.0219,0.03951 0.1111,0.53451 -0.0499,0.54502 -0.1111,0.27076 z" />
</svg>
