  0
SECTION
  2
BLOCKS
  0
ENDSEC
  0
SECTION
  2
ENTITIES
  0
LINE
  8
0
 10
54.2281
 20
-29.5247
 11
54.6694
 21
-29.1509
  0
LINE
  8
0
 10
54.6694
 20
-29.1509
 11
55.1415
 21
-26.2582
  0
LINE
  8
0
 10
55.1415
 20
-26.2582
 11
55.095
 21
-26.1626
  0
LINE
  8
0
 10
55.095
 20
-26.1626
 11
54.9141
 21
-25.8106
  0
LINE
  8
0
 10
54.9141
 20
-25.8106
 11
53.2574
 21
-25.3713
  0
LINE
  8
0
 10
53.2574
 20
-25.3713
 11
48.3848
 21
-24.8031
  0
LINE
  8
0
 10
48.3848
 20
-24.8031
 11
47.8528
 21
-24.4856
  0
LINE
  8
0
 10
47.8528
 20
-24.4856
 11
43.3282
 21
-18.009
  0
LINE
  8
0
 10
43.3282
 20
-18.009
 11
43.0699
 21
-16.7162
  0
LINE
  8
0
 10
43.0699
 20
-16.7162
 11
44.5167
 21
-8.56133
  0
LINE
  8
0
 10
44.5167
 20
-8.56133
 11
45.2128
 21
-7.38586
  0
LINE
  8
0
 10
45.2128
 20
-7.38586
 11
51.8054
 21
-2.20555
  0
LINE
  8
0
 10
51.8054
 20
-2.20555
 11
53.064
 21
-1.84511
  0
LINE
  8
0
 10
53.064
 20
-1.84511
 11
58.7143
 21
-2.50395
  0
LINE
  8
0
 10
58.7143
 20
-2.50395
 11
59.0598
 21
-2.24873
  0
LINE
  8
0
 10
59.0598
 20
-2.24873
 11
59.5412
 21
0.701385
  0
LINE
  8
0
 10
59.5412
 20
0.701385
 11
59.2617
 21
1.31911
  0
LINE
  8
0
 10
59.2617
 20
1.31911
 11
58.6586
 21
1.74893
  0
LINE
  8
0
 10
58.6586
 20
1.74893
 11
57.588
 21
2.44363
  0
LINE
  8
0
 10
57.588
 20
2.44363
 11
57.0245
 21
2.64812
  0
LINE
  8
0
 10
57.0245
 20
2.64812
 11
56.6783
 21
2.7048
  0
LINE
  8
0
 10
56.6783
 20
2.7048
 11
55.3383
 21
2.79893
  0
LINE
  8
0
 10
55.3383
 20
2.79893
 11
54.4974
 21
2.81964
  0
LINE
  8
0
 10
54.4974
 20
2.81964
 11
53.9736
 21
3.0563
  0
LINE
  8
0
 10
53.9736
 20
3.0563
 11
53.6169
 21
3.43196
  0
LINE
  8
0
 10
53.6169
 20
3.43196
 11
53.4897
 21
3.6669
  0
LINE
  8
0
 10
53.4897
 20
3.6669
 11
53.304
 21
4.35809
  0
LINE
  8
0
 10
53.304
 20
4.35809
 11
53.3483
 21
4.77791
  0
LINE
  8
0
 10
53.3483
 20
4.77791
 11
53.5269
 21
5.2244
  0
LINE
  8
0
 10
53.5269
 20
5.2244
 11
54.5974
 21
6.11618
  0
LINE
  8
0
 10
54.5974
 20
6.11618
 11
55.5818
 21
7.10056
  0
LINE
  8
0
 10
55.5818
 20
7.10056
 11
56.4752
 21
8.1705
  0
LINE
  8
0
 10
56.4752
 20
8.1705
 11
57.271
 21
9.31789
  0
LINE
  8
0
 10
57.271
 20
9.31789
 11
57.7445
 21
10.1501
  0
LINE
  8
0
 10
57.7445
 20
10.1501
 11
57.9729
 21
10.6092
  0
LINE
  8
0
 10
57.9729
 20
10.6092
 11
58.5744
 21
12.0715
  0
LINE
  8
0
 10
58.5744
 20
12.0715
 11
59.0499
 21
13.5249
  0
LINE
  8
0
 10
59.0499
 20
13.5249
 11
59.2487
 21
14.3392
  0
LINE
  8
0
 10
59.2487
 20
14.3392
 11
59.2945
 21
14.9691
  0
LINE
  8
0
 10
59.2945
 20
14.9691
 11
59.3366
 21
16.3792
  0
LINE
  8
0
 10
59.3366
 20
16.3792
 11
59.3247
 21
17.2415
  0
LINE
  8
0
 10
59.3247
 20
17.2415
 11
58.7236
 21
22.535
  0
LINE
  8
0
 10
58.7236
 20
22.535
 11
58.5912
 21
23.1603
  0
LINE
  8
0
 10
58.5912
 20
23.1603
 11
58.6692
 21
23.4879
  0
LINE
  8
0
 10
58.6692
 20
23.4879
 11
58.76
 21
23.8789
  0
LINE
  8
0
 10
58.76
 20
23.8789
 11
58.768
 21
24.7343
  0
LINE
  8
0
 10
58.768
 20
24.7343
 11
58.7671
 21
24.8692
  0
LINE
  8
0
 10
58.7671
 20
24.8692
 11
58.7577
 21
24.9096
  0
LINE
  8
0
 10
58.7577
 20
24.9096
 11
58.5043
 21
25.7646
  0
LINE
  8
0
 10
58.5043
 20
25.7646
 11
58.4853
 21
25.8078
  0
LINE
  8
0
 10
58.4853
 20
25.8078
 11
58.2324
 21
26.338
  0
LINE
  8
0
 10
58.2324
 20
26.338
 11
57.9197
 21
26.7682
  0
LINE
  8
0
 10
57.9197
 20
26.7682
 11
57.823
 21
26.8925
  0
LINE
  8
0
 10
57.823
 20
26.8925
 11
57.7542
 21
26.9487
  0
LINE
  8
0
 10
57.7542
 20
26.9487
 11
57.4449
 21
27.3069
  0
LINE
  8
0
 10
57.4449
 20
27.3069
 11
57.1447
 21
27.5148
  0
LINE
  8
0
 10
57.1447
 20
27.5148
 11
56.9606
 21
27.7359
  0
LINE
  8
0
 10
56.9606
 20
27.7359
 11
56.5169
 21
28.0218
  0
LINE
  8
0
 10
56.5169
 20
28.0218
 11
56.2939
 21
28.2059
  0
LINE
  8
0
 10
56.2939
 20
28.2059
 11
55.5501
 21
29.1104
  0
LINE
  8
0
 10
55.5501
 20
29.1104
 11
54.578
 21
30.1062
  0
LINE
  8
0
 10
54.578
 20
30.1062
 11
53.5264
 21
31.0148
  0
LINE
  8
0
 10
53.5264
 20
31.0148
 11
52.403
 21
31.8294
  0
LINE
  8
0
 10
52.403
 20
31.8294
 11
51.2166
 21
32.5437
  0
LINE
  8
0
 10
51.2166
 20
32.5437
 11
49.976
 21
33.1523
  0
LINE
  8
0
 10
49.976
 20
33.1523
 11
48.6908
 21
33.6506
  0
LINE
  8
0
 10
48.6908
 20
33.6506
 11
48.3483
 21
33.7771
  0
LINE
  8
0
 10
48.3483
 20
33.7771
 11
46.9898
 21
34.1724
  0
LINE
  8
0
 10
46.9898
 20
34.1724
 11
45.6058
 21
34.4473
  0
LINE
  8
0
 10
45.6058
 20
34.4473
 11
44.2068
 21
34.5996
  0
LINE
  8
0
 10
44.2068
 20
34.5996
 11
42.8034
 21
34.6282
  0
LINE
  8
0
 10
42.8034
 20
34.6282
 11
41.4063
 21
34.5328
  0
LINE
  8
0
 10
41.4063
 20
34.5328
 11
40.0262
 21
34.3143
  0
LINE
  8
0
 10
40.0262
 20
34.3143
 11
38.7227
 21
33.9947
  0
LINE
  8
0
 10
38.7227
 20
33.9947
 11
38.0827
 21
34.1272
  0
LINE
  8
0
 10
38.0827
 20
34.1272
 11
37.4404
 21
34.3837
  0
LINE
  8
0
 10
37.4404
 20
34.3837
 11
36.6604
 21
34.9678
  0
LINE
  8
0
 10
36.6604
 20
34.9678
 11
36.25
 21
35.4596
  0
LINE
  8
0
 10
36.25
 20
35.4596
 11
35.7475
 21
36.2686
  0
LINE
  8
0
 10
35.7475
 20
36.2686
 11
35.6665
 21
36.4766
  0
LINE
  8
0
 10
35.6665
 20
36.4766
 11
35.6044
 21
36.8504
  0
LINE
  8
0
 10
35.6044
 20
36.8504
 11
35.6722
 21
37.2601
  0
LINE
  8
0
 10
35.6722
 20
37.2601
 11
36.0954
 21
37.9254
  0
LINE
  8
0
 10
36.0954
 20
37.9254
 11
36.8056
 21
39.0751
  0
LINE
  8
0
 10
36.8056
 20
39.0751
 11
37.4045
 21
40.2781
  0
LINE
  8
0
 10
37.4045
 20
40.2781
 11
37.8875
 21
41.5251
  0
LINE
  8
0
 10
37.8875
 20
41.5251
 11
38.2511
 21
42.8068
  0
LINE
  8
0
 10
38.2511
 20
42.8068
 11
38.4924
 21
44.1134
  0
LINE
  8
0
 10
38.4924
 20
44.1134
 11
38.6097
 21
45.4349
  0
LINE
  8
0
 10
38.6097
 20
45.4349
 11
38.6166
 21
45.7187
  0
LINE
  8
0
 10
38.6166
 20
45.7187
 11
38.6089
 21
47.045
  0
LINE
  8
0
 10
38.6089
 20
47.045
 11
38.4762
 21
48.3661
  0
LINE
  8
0
 10
38.4762
 20
48.3661
 11
38.2196
 21
49.672
  0
LINE
  8
0
 10
38.2196
 20
49.672
 11
37.841
 21
50.9526
  0
LINE
  8
0
 10
37.841
 20
50.9526
 11
37.3434
 21
52.1982
  0
LINE
  8
0
 10
37.3434
 20
52.1982
 11
36.7305
 21
53.3994
  0
LINE
  8
0
 10
36.7305
 20
53.3994
 11
36.3408
 21
54.0833
  0
LINE
  8
0
 10
36.3408
 20
54.0833
 11
35.6377
 21
55.1984
  0
LINE
  8
0
 10
35.6377
 20
55.1984
 11
34.8325
 21
56.253
  0
LINE
  8
0
 10
34.8325
 20
56.253
 11
33.9312
 21
57.239
  0
LINE
  8
0
 10
33.9312
 20
57.239
 11
32.9408
 21
58.1488
  0
LINE
  8
0
 10
32.9408
 20
58.1488
 11
31.8687
 21
58.9757
  0
LINE
  8
0
 10
31.8687
 20
58.9757
 11
30.7232
 21
59.7133
  0
LINE
  8
0
 10
30.7232
 20
59.7133
 11
29.5129
 21
60.3559
  0
LINE
  8
0
 10
29.5129
 20
60.3559
 11
28.2471
 21
60.8987
  0
LINE
  8
0
 10
28.2471
 20
60.8987
 11
26.9354
 21
61.3376
  0
LINE
  8
0
 10
26.9354
 20
61.3376
 11
25.8771
 21
61.598
  0
LINE
  8
0
 10
25.8771
 20
61.598
 11
25.6461
 21
61.7926
  0
LINE
  8
0
 10
25.6461
 20
61.7926
 11
25.3442
 21
62.2262
  0
LINE
  8
0
 10
25.3442
 20
62.2262
 11
25.3269
 21
62.2657
  0
LINE
  8
0
 10
25.3269
 20
62.2657
 11
25.1904
 21
62.6192
  0
LINE
  8
0
 10
25.1904
 20
62.6192
 11
25.0748
 21
63.2965
  0
LINE
  8
0
 10
25.0748
 20
63.2965
 11
25.0204
 21
64.197
  0
LINE
  8
0
 10
25.0204
 20
64.197
 11
24.9852
 21
66.2586
  0
LINE
  8
0
 10
24.9852
 20
66.2586
 11
24.9394
 21
68.5373
  0
LINE
  8
0
 10
24.9394
 20
68.5373
 11
24.9301
 21
69.4357
  0
LINE
  8
0
 10
24.9301
 20
69.4357
 11
24.8859
 21
71.0148
  0
LINE
  8
0
 10
24.8859
 20
71.0148
 11
24.8727
 21
72.635
  0
LINE
  8
0
 10
24.8727
 20
72.635
 11
24.8416
 21
73.6589
  0
LINE
  8
0
 10
24.8416
 20
73.6589
 11
24.8441
 21
74.69
  0
LINE
  8
0
 10
24.8441
 20
74.69
 11
24.8964
 21
75.2199
  0
LINE
  8
0
 10
24.8964
 20
75.2199
 11
24.9059
 21
75.2638
  0
LINE
  8
0
 10
24.9059
 20
75.2638
 11
25.1004
 21
75.2778
  0
LINE
  8
0
 10
25.1004
 20
75.2778
 11
26.4273
 21
75.459
  0
LINE
  8
0
 10
26.4273
 20
75.459
 11
27.7146
 21
75.7219
  0
LINE
  8
0
 10
27.7146
 20
75.7219
 11
28.9525
 21
76.0647
  0
LINE
  8
0
 10
28.9525
 20
76.0647
 11
30.1316
 21
76.4847
  0
LINE
  8
0
 10
30.1316
 20
76.4847
 11
31.2184
 21
76.9677
  0
LINE
  8
0
 10
31.2184
 20
76.9677
 11
31.2584
 21
77.0208
  0
LINE
  8
0
 10
31.2584
 20
77.0208
 11
32.5635
 21
78.8743
  0
LINE
  8
0
 10
32.5635
 20
78.8743
 11
32.8926
 21
79.5532
  0
LINE
  8
0
 10
32.8926
 20
79.5532
 11
32.9182
 21
79.6339
  0
LINE
  8
0
 10
32.9182
 20
79.6339
 11
33.598
 21
82.0116
  0
LINE
  8
0
 10
33.598
 20
82.0116
 11
33.5423
 21
82.5663
  0
LINE
  8
0
 10
33.5423
 20
82.5663
 11
33.519
 21
82.7576
  0
LINE
  8
0
 10
33.519
 20
82.7576
 11
32.0492
 21
84.3526
  0
LINE
  8
0
 10
32.0492
 20
84.3526
 11
31.6662
 21
84.2407
  0
LINE
  8
0
 10
31.6662
 20
84.2407
 11
25.0908
 21
81.6168
  0
LINE
  8
0
 10
25.0908
 20
81.6168
 11
23.6019
 21
81.5093
  0
LINE
  8
0
 10
23.6019
 20
81.5093
 11
15.3782
 21
83.1808
  0
LINE
  8
0
 10
15.3782
 20
83.1808
 11
14.2587
 21
83.77
  0
LINE
  8
0
 10
14.2587
 20
83.77
 11
13.2905
 21
84.827
  0
LINE
  8
0
 10
13.2905
 20
84.827
 11
12.9865
 21
85.0134
  0
LINE
  8
0
 10
12.9865
 20
85.0134
 11
10.8865
 21
83.7523
  0
LINE
  8
0
 10
10.8865
 20
83.7523
 11
10.628
 21
83.1116
  0
LINE
  8
0
 10
10.628
 20
83.1116
 11
10.6956
 21
80.7824
  0
LINE
  8
0
 10
10.6956
 20
80.7824
 11
10.7801
 21
80.3329
  0
LINE
  8
0
 10
10.7801
 20
80.3329
 11
10.8302
 21
80.1017
  0
LINE
  8
0
 10
10.8302
 20
80.1017
 11
11.6544
 21
78.1222
  0
LINE
  8
0
 10
11.6544
 20
78.1222
 11
11.9227
 21
77.9562
  0
LINE
  8
0
 10
11.9227
 20
77.9562
 11
13.0794
 21
77.3475
  0
LINE
  8
0
 10
13.0794
 20
77.3475
 11
14.298
 21
76.8062
  0
LINE
  8
0
 10
14.298
 20
76.8062
 11
15.5694
 21
76.3364
  0
LINE
  8
0
 10
15.5694
 20
76.3364
 11
16.8838
 21
75.9418
  0
LINE
  8
0
 10
16.8838
 20
75.9418
 11
17.9383
 21
75.6947
  0
LINE
  8
0
 10
17.9383
 20
75.6947
 11
18.0784
 21
75.4155
  0
LINE
  8
0
 10
18.0784
 20
75.4155
 11
18.1644
 21
74.884
  0
LINE
  8
0
 10
18.1644
 20
74.884
 11
18.2102
 21
73.8395
  0
LINE
  8
0
 10
18.2102
 20
73.8395
 11
18.2126
 21
72.2666
  0
LINE
  8
0
 10
18.2126
 20
72.2666
 11
18.2754
 21
69.6998
  0
LINE
  8
0
 10
18.2754
 20
69.6998
 11
18.3433
 21
67.3542
  0
LINE
  8
0
 10
18.3433
 20
67.3542
 11
18.3562
 21
65.928
  0
LINE
  8
0
 10
18.3562
 20
65.928
 11
18.3894
 21
65.0749
  0
LINE
  8
0
 10
18.3894
 20
65.0749
 11
18.4103
 21
63.6495
  0
LINE
  8
0
 10
18.4103
 20
63.6495
 11
18.3908
 21
63.0673
  0
LINE
  8
0
 10
18.3908
 20
63.0673
 11
18.2947
 21
62.4242
  0
LINE
  8
0
 10
18.2947
 20
62.4242
 11
18.1103
 21
61.8575
  0
LINE
  8
0
 10
18.1103
 20
61.8575
 11
17.9282
 21
61.5818
  0
LINE
  8
0
 10
17.9282
 20
61.5818
 11
17.7798
 21
61.4344
  0
LINE
  8
0
 10
17.7798
 20
61.4344
 11
17.3313
 21
61.3235
  0
LINE
  8
0
 10
17.3313
 20
61.3235
 11
16.0247
 21
60.8808
  0
LINE
  8
0
 10
16.0247
 20
60.8808
 11
14.7653
 21
60.3343
  0
LINE
  8
0
 10
14.7653
 20
60.3343
 11
13.5626
 21
59.6881
  0
LINE
  8
0
 10
13.5626
 20
59.6881
 11
12.4257
 21
58.9472
  0
LINE
  8
0
 10
12.4257
 20
58.9472
 11
11.3633
 21
58.1172
  0
LINE
  8
0
 10
11.3633
 20
58.1172
 11
10.3836
 21
57.2045
  0
LINE
  8
0
 10
10.3836
 20
57.2045
 11
9.49384
 21
56.2159
  0
LINE
  8
0
 10
9.49384
 20
56.2159
 11
8.70096
 21
55.1589
  0
LINE
  8
0
 10
8.70096
 20
55.1589
 11
8.28575
 21
54.5064
  0
LINE
  8
0
 10
8.28575
 20
54.5064
 11
7.57562
 21
53.3567
  0
LINE
  8
0
 10
7.57562
 20
53.3567
 11
6.97673
 21
52.1537
  0
LINE
  8
0
 10
6.97673
 20
52.1537
 11
6.49367
 21
50.9066
  0
LINE
  8
0
 10
6.49367
 20
50.9066
 11
6.31764
 21
50.2695
  0
LINE
  8
0
 10
6.31764
 20
50.2695
 11
6.1803
 21
50.0954
  0
LINE
  8
0
 10
6.1803
 20
50.0954
 11
5.4921
 21
49.5332
  0
LINE
  8
0
 10
5.4921
 20
49.5332
 11
4.61685
 21
49.2174
  0
LINE
  8
0
 10
4.61685
 20
49.2174
 11
3.39641
 21
49.0264
  0
LINE
  8
0
 10
3.39641
 20
49.0264
 11
2.0656
 21
48.8866
  0
LINE
  8
0
 10
2.0656
 20
48.8866
 11
-1.18198
 21
48.5259
  0
LINE
  8
0
 10
-1.18198
 20
48.5259
 11
-3.92186
 21
48.2058
  0
LINE
  8
0
 10
-3.92186
 20
48.2058
 11
-5.54509
 21
47.9834
  0
LINE
  8
0
 10
-5.54509
 20
47.9834
 11
-7.70804
 21
47.6482
  0
LINE
  8
0
 10
-7.70804
 20
47.6482
 11
-10.0679
 21
47.2737
  0
LINE
  8
0
 10
-10.0679
 20
47.2737
 11
-10.964
 21
47.1974
  0
LINE
  8
0
 10
-10.964
 20
47.1974
 11
-11.5037
 21
47.244
  0
LINE
  8
0
 10
-11.5037
 20
47.244
 11
-11.9974
 21
47.4876
  0
LINE
  8
0
 10
-11.9974
 20
47.4876
 11
-12.5352
 21
48.3428
  0
LINE
  8
0
 10
-12.5352
 20
48.3428
 11
-12.7227
 21
48.6326
  0
LINE
  8
0
 10
-12.7227
 20
48.6326
 11
-13.2111
 21
49.3675
  0
LINE
  8
0
 10
-13.2111
 20
49.3675
 11
-13.6908
 21
49.9905
  0
LINE
  8
0
 10
-13.6908
 20
49.9905
 11
-14.1171
 21
50.3401
  0
LINE
  8
0
 10
-14.1171
 20
50.3401
 11
-15.0417
 21
50.7085
  0
LINE
  8
0
 10
-15.0417
 20
50.7085
 11
-15.6646
 21
50.9352
  0
LINE
  8
0
 10
-15.6646
 20
50.9352
 11
-16.1517
 21
50.6778
  0
LINE
  8
0
 10
-16.1517
 20
50.6778
 11
-17.5288
 21
47.6066
  0
LINE
  8
0
 10
-17.5288
 20
47.6066
 11
-17.5254
 21
47.4307
  0
LINE
  8
0
 10
-17.5254
 20
47.4307
 11
-17.5237
 21
46.9778
  0
LINE
  8
0
 10
-17.5237
 20
46.9778
 11
-15.3483
 21
42.1433
  0
LINE
  8
0
 10
-15.3483
 20
42.1433
 11
-15.3099
 21
40.7879
  0
LINE
  8
0
 10
-15.3099
 20
40.7879
 11
-18.0459
 21
32.9162
  0
LINE
  8
0
 10
-18.0459
 20
32.9162
 11
-18.9337
 21
31.8277
  0
LINE
  8
0
 10
-18.9337
 20
31.8277
 11
-25.9616
 21
27.7291
  0
LINE
  8
0
 10
-25.9616
 20
27.7291
 11
-26.1574
 21
27.7013
  0
LINE
  8
0
 10
-26.1574
 20
27.7013
 11
-26.5779
 21
27.4253
  0
LINE
  8
0
 10
-26.5779
 20
27.4253
 11
-27.7114
 21
24.8974
  0
LINE
  8
0
 10
-27.7114
 20
24.8974
 11
-27.5987
 21
24.3199
  0
LINE
  8
0
 10
-27.5987
 20
24.3199
 11
-26.2239
 21
23.3398
  0
LINE
  8
0
 10
-26.2239
 20
23.3398
 11
-25.8337
 21
23.2249
  0
LINE
  8
0
 10
-25.8337
 20
23.2249
 11
-25.4018
 21
23.2293
  0
LINE
  8
0
 10
-25.4018
 20
23.2293
 11
-25.2332
 21
23.1326
  0
LINE
  8
0
 10
-25.2332
 20
23.1326
 11
-24.9756
 21
23.0159
  0
LINE
  8
0
 10
-24.9756
 20
23.0159
 11
-24.6528
 21
22.6864
  0
LINE
  8
0
 10
-24.6528
 20
22.6864
 11
-24.4341
 21
22.2434
  0
LINE
  8
0
 10
-24.4341
 20
22.2434
 11
-24.4022
 21
22.1296
  0
LINE
  8
0
 10
-24.4022
 20
22.1296
 11
-24.9235
 21
21.4789
  0
LINE
  8
0
 10
-24.9235
 20
21.4789
 11
-25.328
 21
20.7173
  0
LINE
  8
0
 10
-25.328
 20
20.7173
 11
-25.5959
 21
19.8798
  0
LINE
  8
0
 10
-25.5959
 20
19.8798
 11
-25.7167
 21
18.9985
  0
LINE
  8
0
 10
-25.7167
 20
18.9985
 11
-25.6859
 21
18.1073
  0
LINE
  8
0
 10
-25.6859
 20
18.1073
 11
-25.5045
 21
17.2405
  0
LINE
  8
0
 10
-25.5045
 20
17.2405
 11
-25.1797
 21
16.4313
  0
LINE
  8
0
 10
-25.1797
 20
16.4313
 11
-24.7238
 21
15.711
  0
LINE
  8
0
 10
-24.7238
 20
15.711
 11
-24.1544
 21
15.107
  0
LINE
  8
0
 10
-24.1544
 20
15.107
 11
-23.4934
 21
14.6427
  0
LINE
  8
0
 10
-23.4934
 20
14.6427
 11
-22.7661
 21
14.336
  0
LINE
  8
0
 10
-22.7661
 20
14.336
 11
-22.0006
 21
14.1985
  0
LINE
  8
0
 10
-22.0006
 20
14.1985
 11
-21.9872
 21
14.1987
  0
LINE
  8
0
 10
-21.9872
 20
14.1987
 11
-21.7323
 21
14.1159
  0
LINE
  8
0
 10
-21.7323
 20
14.1159
 11
-21.7023
 21
14.0968
  0
LINE
  8
0
 10
-21.7023
 20
14.0968
 11
-21.4123
 21
13.8327
  0
LINE
  8
0
 10
-21.4123
 20
13.8327
 11
-21.022
 21
13.218
  0
LINE
  8
0
 10
-21.022
 20
13.218
 11
-20.8268
 21
12.6161
  0
LINE
  8
0
 10
-20.8268
 20
12.6161
 11
-20.8074
 21
12.3331
  0
LINE
  8
0
 10
-20.8074
 20
12.3331
 11
-20.8917
 21
11.7374
  0
LINE
  8
0
 10
-20.8917
 20
11.7374
 11
-20.9438
 21
11.5935
  0
LINE
  8
0
 10
-20.9438
 20
11.5935
 11
-21.4245
 21
11.1418
  0
LINE
  8
0
 10
-21.4245
 20
11.1418
 11
-22.3516
 21
10.1766
  0
LINE
  8
0
 10
-22.3516
 20
10.1766
 11
-23.1944
 21
9.12772
  0
LINE
  8
0
 10
-23.1944
 20
9.12772
 11
-23.8056
 21
8.21404
  0
LINE
  8
0
 10
-23.8056
 20
8.21404
 11
-23.8388
 21
8.19539
  0
LINE
  8
0
 10
-23.8388
 20
8.19539
 11
-24.4094
 21
8.11649
  0
LINE
  8
0
 10
-24.4094
 20
8.11649
 11
-24.4648
 21
8.11862
  0
LINE
  8
0
 10
-24.4648
 20
8.11862
 11
-24.9919
 21
8.24809
  0
LINE
  8
0
 10
-24.9919
 20
8.24809
 11
-26.5589
 21
8.91794
  0
LINE
  8
0
 10
-26.5589
 20
8.91794
 11
-27.8577
 21
9.29666
  0
LINE
  8
0
 10
-27.8577
 20
9.29666
 11
-28.4538
 21
9.45526
  0
LINE
  8
0
 10
-28.4538
 20
9.45526
 11
-28.6996
 21
9.49428
  0
LINE
  8
0
 10
-28.6996
 20
9.49428
 11
-28.805
 21
9.50044
  0
LINE
  8
0
 10
-28.805
 20
9.50044
 11
-28.8887
 21
9.50128
  0
LINE
  8
0
 10
-28.8887
 20
9.50128
 11
-29.3175
 21
9.52788
  0
LINE
  8
0
 10
-29.3175
 20
9.52788
 11
-29.5638
 21
9.50903
  0
LINE
  8
0
 10
-29.5638
 20
9.50903
 11
-29.8326
 21
9.49249
  0
LINE
  8
0
 10
-29.8326
 20
9.49249
 11
-29.9069
 21
9.47508
  0
LINE
  8
0
 10
-29.9069
 20
9.47508
 11
-30.1873
 21
9.37526
  0
LINE
  8
0
 10
-30.1873
 20
9.37526
 11
-30.3944
 21
9.24525
  0
LINE
  8
0
 10
-30.3944
 20
9.24525
 11
-30.5785
 21
9.16748
  0
LINE
  8
0
 10
-30.5785
 20
9.16748
 11
-30.7304
 21
9.06592
  0
LINE
  8
0
 10
-30.7304
 20
9.06592
 11
-30.8801
 21
8.91045
  0
LINE
  8
0
 10
-30.8801
 20
8.91045
 11
-31.0555
 21
8.73213
  0
LINE
  8
0
 10
-31.0555
 20
8.73213
 11
-31.3321
 21
8.37103
  0
LINE
  8
0
 10
-31.3321
 20
8.37103
 11
-31.592
 21
7.82332
  0
LINE
  8
0
 10
-31.592
 20
7.82332
 11
-31.6037
 21
7.79543
  0
LINE
  8
0
 10
-31.6037
 20
7.79543
 11
-31.616
 21
7.73314
  0
LINE
  8
0
 10
-31.616
 20
7.73314
 11
-31.7235
 21
7.28426
  0
LINE
  8
0
 10
-31.7235
 20
7.28426
 11
-31.7253
 21
7.12233
  0
LINE
  8
0
 10
-31.7253
 20
7.12233
 11
-31.699
 21
6.70483
  0
LINE
  8
0
 10
-31.699
 20
6.70483
 11
-31.655
 21
6.53636
  0
LINE
  8
0
 10
-31.655
 20
6.53636
 11
-31.5816
 21
6.31938
  0
LINE
  8
0
 10
-31.5816
 20
6.31938
 11
-31.452
 21
6.09239
  0
LINE
  8
0
 10
-31.452
 20
6.09239
 11
-31.3602
 21
5.93961
  0
LINE
  8
0
 10
-31.3602
 20
5.93961
 11
-31.2289
 21
5.82036
  0
LINE
  8
0
 10
-31.2289
 20
5.82036
 11
-31.056
 21
5.65146
  0
LINE
  8
0
 10
-31.056
 20
5.65146
 11
-30.7771
 21
5.52757
  0
LINE
  8
0
 10
-30.7771
 20
5.52757
 11
-30.6587
 21
5.47075
  0
LINE
  8
0
 10
-30.6587
 20
5.47075
 11
-29.8871
 21
5.26854
  0
LINE
  8
0
 10
-29.8871
 20
5.26854
 11
-29.1956
 21
5.07823
  0
LINE
  8
0
 10
-29.1956
 20
5.07823
 11
-28.613
 21
4.79575
  0
LINE
  8
0
 10
-28.613
 20
4.79575
 11
-28.2329
 21
4.43593
  0
LINE
  8
0
 10
-28.2329
 20
4.43593
 11
-28.0065
 21
3.98148
  0
LINE
  8
0
 10
-28.0065
 20
3.98148
 11
-27.9063
 21
3.45599
  0
LINE
  8
0
 10
-27.9063
 20
3.45599
 11
-28.0104
 21
3.03545
  0
LINE
  8
0
 10
-28.0104
 20
3.03545
 11
-28.3055
 21
2.77594
  0
LINE
  8
0
 10
-28.3055
 20
2.77594
 11
-28.8112
 21
2.72141
  0
LINE
  8
0
 10
-28.8112
 20
2.72141
 11
-28.8482
 21
2.72388
  0
LINE
  8
0
 10
-28.8482
 20
2.72388
 11
-29.7945
 21
2.94817
  0
LINE
  8
0
 10
-29.7945
 20
2.94817
 11
-30.1609
 21
3.0023
  0
LINE
  8
0
 10
-30.1609
 20
3.0023
 11
-30.7787
 21
3.02873
  0
LINE
  8
0
 10
-30.7787
 20
3.02873
 11
-31.0109
 21
3.00513
  0
LINE
  8
0
 10
-31.0109
 20
3.00513
 11
-31.3075
 21
2.94395
  0
LINE
  8
0
 10
-31.3075
 20
2.94395
 11
-31.3839
 21
2.93964
  0
LINE
  8
0
 10
-31.3839
 20
2.93964
 11
-31.7019
 21
2.80417
  0
LINE
  8
0
 10
-31.7019
 20
2.80417
 11
-31.7816
 21
2.78024
  0
LINE
  8
0
 10
-31.7816
 20
2.78024
 11
-31.8465
 21
2.74767
  0
LINE
  8
0
 10
-31.8465
 20
2.74767
 11
-32.2867
 21
2.40161
  0
LINE
  8
0
 10
-32.2867
 20
2.40161
 11
-32.3924
 21
2.28261
  0
LINE
  8
0
 10
-32.3924
 20
2.28261
 11
-32.6446
 21
1.97935
  0
LINE
  8
0
 10
-32.6446
 20
1.97935
 11
-32.6988
 21
1.88995
  0
LINE
  8
0
 10
-32.6988
 20
1.88995
 11
-32.923
 21
1.48369
  0
LINE
  8
0
 10
-32.923
 20
1.48369
 11
-33.0565
 21
1.12741
  0
LINE
  8
0
 10
-33.0565
 20
1.12741
 11
-33.0959
 21
1.01039
  0
LINE
  8
0
 10
-33.0959
 20
1.01039
 11
-33.119
 21
0.800781
  0
LINE
  8
0
 10
-33.119
 20
0.800781
 11
-33.1815
 21
0.474915
  0
LINE
  8
0
 10
-33.1815
 20
0.474915
 11
-33.1652
 21
0.280563
  0
LINE
  8
0
 10
-33.1652
 20
0.280563
 11
-33.1908
 21
-0.252121
  0
LINE
  8
0
 10
-33.1908
 20
-0.252121
 11
-33.1578
 21
-0.419739
  0
LINE
  8
0
 10
-33.1578
 20
-0.419739
 11
-32.9613
 21
-1.00833
  0
LINE
  8
0
 10
-32.9613
 20
-1.00833
 11
-32.9444
 21
-1.16379
  0
LINE
  8
0
 10
-32.9444
 20
-1.16379
 11
-33.2889
 21
-1.34755
  0
LINE
  8
0
 10
-33.2889
 20
-1.34755
 11
-33.9157
 21
-1.87349
  0
LINE
  8
0
 10
-33.9157
 20
-1.87349
 11
-34.4415
 21
-2.52988
  0
LINE
  8
0
 10
-34.4415
 20
-2.52988
 11
-34.846
 21
-3.29146
  0
LINE
  8
0
 10
-34.846
 20
-3.29146
 11
-35.0962
 21
-4.05357
  0
LINE
  8
0
 10
-35.0962
 20
-4.05357
 11
-35.2347
 21
-5.01028
  0
LINE
  8
0
 10
-35.2347
 20
-5.01028
 11
-35.2039
 21
-5.90147
  0
LINE
  8
0
 10
-35.2039
 20
-5.90147
 11
-35.0225
 21
-6.7683
  0
LINE
  8
0
 10
-35.0225
 20
-6.7683
 11
-34.6977
 21
-7.57744
  0
LINE
  8
0
 10
-34.6977
 20
-7.57744
 11
-34.2418
 21
-8.29784
  0
LINE
  8
0
 10
-34.2418
 20
-8.29784
 11
-33.6724
 21
-8.90176
  0
LINE
  8
0
 10
-33.6724
 20
-8.90176
 11
-33.0114
 21
-9.36606
  0
LINE
  8
0
 10
-33.0114
 20
-9.36606
 11
-32.2841
 21
-9.67284
  0
LINE
  8
0
 10
-32.2841
 20
-9.67284
 11
-31.5186
 21
-9.81032
  0
LINE
  8
0
 10
-31.5186
 20
-9.81032
 11
-27.113
 21
-9.83794
  0
LINE
  8
0
 10
-27.113
 20
-9.83794
 11
-26.3386
 21
-9.80086
  0
LINE
  8
0
 10
-26.3386
 20
-9.80086
 11
-25.5851
 21
-9.59062
  0
LINE
  8
0
 10
-25.5851
 20
-9.59062
 11
-24.8815
 21
-9.21533
  0
LINE
  8
0
 10
-24.8815
 20
-9.21533
 11
-24.2547
 21
-8.68938
  0
LINE
  8
0
 10
-24.2547
 20
-8.68938
 11
-24.2196
 21
-8.64511
  0
LINE
  8
0
 10
-24.2196
 20
-8.64511
 11
-23.9571
 21
-9.13365
  0
LINE
  8
0
 10
-23.9571
 20
-9.13365
 11
-23.2062
 21
-10.2883
  0
LINE
  8
0
 10
-23.2062
 20
-10.2883
 11
-22.3647
 21
-11.3709
  0
LINE
  8
0
 10
-22.3647
 20
-11.3709
 11
-21.4388
 21
-12.3732
  0
LINE
  8
0
 10
-21.4388
 20
-12.3732
 11
-20.4356
 21
-13.2876
  0
LINE
  8
0
 10
-20.4356
 20
-13.2876
 11
-19.3628
 21
-14.107
  0
LINE
  8
0
 10
-19.3628
 20
-14.107
 11
-18.2285
 21
-14.8254
  0
LINE
  8
0
 10
-18.2285
 20
-14.8254
 11
-17.0413
 21
-15.4371
  0
LINE
  8
0
 10
-17.0413
 20
-15.4371
 11
-16.4186
 21
-15.7457
  0
LINE
  8
0
 10
-16.4186
 20
-15.7457
 11
-15.1518
 21
-16.2608
  0
LINE
  8
0
 10
-15.1518
 20
-16.2608
 11
-13.8495
 21
-16.6574
  0
LINE
  8
0
 10
-13.8495
 20
-16.6574
 11
-12.5218
 21
-16.9326
  0
LINE
  8
0
 10
-12.5218
 20
-16.9326
 11
-11.1786
 21
-17.0843
  0
LINE
  8
0
 10
-11.1786
 20
-17.0843
 11
-9.83017
 21
-17.1113
  0
LINE
  8
0
 10
-9.83017
 20
-17.1113
 11
-8.4868
 21
-17.0135
  0
LINE
  8
0
 10
-8.4868
 20
-17.0135
 11
-8.2328
 21
-16.9759
  0
LINE
  8
0
 10
-8.2328
 20
-16.9759
 11
-6.90471
 21
-16.7538
  0
LINE
  8
0
 10
-6.90471
 20
-16.7538
 11
-5.60204
 21
-16.4094
  0
LINE
  8
0
 10
-5.60204
 20
-16.4094
 11
-4.33464
 21
-15.9451
  0
LINE
  8
0
 10
-4.33464
 20
-15.9451
 11
-3.1122
 21
-15.3645
  0
LINE
  8
0
 10
-3.1122
 20
-15.3645
 11
-1.94402
 21
-14.672
  0
LINE
  8
0
 10
-1.94402
 20
-14.672
 11
-0.838943
 21
-13.8729
  0
LINE
  8
0
 10
-0.838943
 20
-13.8729
 11
0.194534
 21
-12.9733
  0
LINE
  8
0
 10
0.194534
 20
-12.9733
 11
0.711533
 21
-12.4875
  0
LINE
  8
0
 10
0.711533
 20
-12.4875
 11
1.63742
 21
-11.5235
  0
LINE
  8
0
 10
1.63742
 20
-11.5235
 11
2.47922
 21
-10.476
  0
LINE
  8
0
 10
2.47922
 20
-10.476
 11
3.23047
 21
-9.35291
  0
LINE
  8
0
 10
3.23047
 20
-9.35291
 11
3.88548
 21
-8.16273
  0
LINE
  8
0
 10
3.88548
 20
-8.16273
 11
4.43929
 21
-6.91457
  0
LINE
  8
0
 10
4.43929
 20
-6.91457
 11
4.88762
 21
-5.6179
  0
LINE
  8
0
 10
4.88762
 20
-5.6179
 11
5.22713
 21
-4.28261
  0
LINE
  8
0
 10
5.22713
 20
-4.28261
 11
5.45518
 21
-2.91884
  0
LINE
  8
0
 10
5.45518
 20
-2.91884
 11
5.57007
 21
-1.537
  0
LINE
  8
0
 10
5.57007
 20
-1.537
 11
5.57091
 21
-0.147568
  0
LINE
  8
0
 10
5.57091
 20
-0.147568
 11
5.52805
 21
0.375427
  0
LINE
  8
0
 10
5.52805
 20
0.375427
 11
5.91522
 21
0.8517
  0
LINE
  8
0
 10
5.91522
 20
0.8517
 11
6.45044
 21
1.2769
  0
LINE
  8
0
 10
6.45044
 20
1.2769
 11
7.22969
 21
1.67247
  0
LINE
  8
0
 10
7.22969
 20
1.67247
 11
8.07423
 21
2.00204
  0
LINE
  8
0
 10
8.07423
 20
2.00204
 11
8.99478
 21
2.29199
  0
LINE
  8
0
 10
8.99478
 20
2.29199
 11
10.5476
 21
2.77505
  0
LINE
  8
0
 10
10.5476
 20
2.77505
 11
12.0366
 21
3.24051
  0
LINE
  8
0
 10
12.0366
 20
3.24051
 11
13.1045
 21
3.56377
  0
LINE
  8
0
 10
13.1045
 20
3.56377
 11
13.3906
 21
3.6244
  0
LINE
  8
0
 10
13.3906
 20
3.6244
 11
14.5471
 21
3.77988
  0
LINE
  8
0
 10
14.5471
 20
3.77988
 11
14.6691
 21
3.77614
  0
LINE
  8
0
 10
14.6691
 20
3.77614
 11
14.7388
 21
3.72919
  0
LINE
  8
0
 10
14.7388
 20
3.72919
 11
15.6175
 21
3.37506
  0
LINE
  8
0
 10
15.6175
 20
3.37506
 11
16.5523
 21
3.21135
  0
LINE
  8
0
 10
16.5523
 20
3.21135
 11
17.5011
 21
3.2451
  0
LINE
  8
0
 10
17.5011
 20
3.2451
 11
18.4235
 21
3.47496
  0
LINE
  8
0
 10
18.4235
 20
3.47496
 11
19.2788
 21
3.89076
  0
LINE
  8
0
 10
19.2788
 20
3.89076
 11
20.0299
 21
4.47455
  0
LINE
  8
0
 10
20.0299
 20
4.47455
 11
20.6436
 21
5.20059
  0
LINE
  8
0
 10
20.6436
 20
5.20059
 11
21.0877
 21
6.02672
  0
LINE
  8
0
 10
21.0877
 20
6.02672
 11
21.2225
 21
6.12701
  0
LINE
  8
0
 10
21.2225
 20
6.12701
 11
21.7744
 21
6.4438
  0
LINE
  8
0
 10
21.7744
 20
6.4438
 11
23.2003
 21
7.08131
  0
LINE
  8
0
 10
23.2003
 20
7.08131
 11
26.8256
 21
8.45206
  0
LINE
  8
0
 10
26.8256
 20
8.45206
 11
28.0872
 21
8.91852
  0
LINE
  8
0
 10
28.0872
 20
8.91852
 11
28.8734
 21
9.04813
  0
LINE
  8
0
 10
28.8734
 20
9.04813
 11
29.836
 21
8.99806
  0
LINE
  8
0
 10
29.836
 20
8.99806
 11
30.5659
 21
8.71083
  0
LINE
  8
0
 10
30.5659
 20
8.71083
 11
30.675
 21
8.55209
  0
LINE
  8
0
 10
30.675
 20
8.55209
 11
31.5589
 21
7.47812
  0
LINE
  8
0
 10
31.5589
 20
7.47812
 11
32.5296
 21
6.4836
  0
LINE
  8
0
 10
32.5296
 20
6.4836
 11
33.5799
 21
5.57611
  0
LINE
  8
0
 10
33.5799
 20
5.57611
 11
34.7018
 21
4.76259
  0
LINE
  8
0
 10
34.7018
 20
4.76259
 11
35.8868
 21
4.04921
  0
LINE
  8
0
 10
35.8868
 20
4.04921
 11
37.1257
 21
3.44139
  0
LINE
  8
0
 10
37.1257
 20
3.44139
 11
37.17
 21
3.42317
  0
LINE
  8
0
 10
37.17
 20
3.42317
 11
37.5505
 21
2.75424
  0
LINE
  8
0
 10
37.5505
 20
2.75424
 11
37.6499
 21
2.27089
  0
LINE
  8
0
 10
37.6499
 20
2.27089
 11
37.4669
 21
2.05434
  0
LINE
  8
0
 10
37.4669
 20
2.05434
 11
37.0172
 21
1.2177
  0
LINE
  8
0
 10
37.0172
 20
1.2177
 11
36.7512
 21
0.307007
  0
LINE
  8
0
 10
36.7512
 20
0.307007
 11
36.6957
 21
-0.106506
  0
LINE
  8
0
 10
36.6957
 20
-0.106506
 11
36.6806
 21
-0.637878
  0
LINE
  8
0
 10
36.6806
 20
-0.637878
 11
36.8083
 21
-1.57538
  0
LINE
  8
0
 10
36.8083
 20
-1.57538
 11
37.1291
 21
-2.4657
  0
LINE
  8
0
 10
37.1291
 20
-2.4657
 11
37.6285
 21
-3.26837
  0
LINE
  8
0
 10
37.6285
 20
-3.26837
 11
38.1488
 21
-4.08818
  0
LINE
  8
0
 10
38.1488
 20
-4.08818
 11
38.8053
 21
-4.769
  0
LINE
  8
0
 10
38.8053
 20
-4.769
 11
39.3742
 21
-5.15253
  0
LINE
  8
0
 10
39.3742
 20
-5.15253
 11
39.4318
 21
-5.21904
  0
LINE
  8
0
 10
39.4318
 20
-5.21904
 11
39.6987
 21
-5.69058
  0
LINE
  8
0
 10
39.6987
 20
-5.69058
 11
39.8935
 21
-6.22667
  0
LINE
  8
0
 10
39.8935
 20
-6.22667
 11
39.4565
 21
-7.10608
  0
LINE
  8
0
 10
39.4565
 20
-7.10608
 11
38.9426
 21
-8.39514
  0
LINE
  8
0
 10
38.9426
 20
-8.39514
 11
38.536
 21
-9.71764
  0
LINE
  8
0
 10
38.536
 20
-9.71764
 11
38.2397
 21
-11.0635
  0
LINE
  8
0
 10
38.2397
 20
-11.0635
 11
38.0561
 21
-12.4225
  0
LINE
  8
0
 10
38.0561
 20
-12.4225
 11
37.9865
 21
-13.7844
  0
LINE
  8
0
 10
37.9865
 20
-13.7844
 11
38.0315
 21
-15.1386
  0
LINE
  8
0
 10
38.0315
 20
-15.1386
 11
38.1907
 21
-16.4749
  0
LINE
  8
0
 10
38.1907
 20
-16.4749
 11
38.4629
 21
-17.7832
  0
LINE
  8
0
 10
38.4629
 20
-17.7832
 11
38.846
 21
-19.0535
  0
LINE
  8
0
 10
38.846
 20
-19.0535
 11
39.3371
 21
-20.2762
  0
LINE
  8
0
 10
39.3371
 20
-20.2762
 11
39.9326
 21
-21.4418
  0
LINE
  8
0
 10
39.9326
 20
-21.4418
 11
40.3361
 21
-22.2012
  0
LINE
  8
0
 10
40.3361
 20
-22.2012
 11
41.0524
 21
-23.3345
  0
LINE
  8
0
 10
41.0524
 20
-23.3345
 11
41.8661
 21
-24.3913
  0
LINE
  8
0
 10
41.8661
 20
-24.3913
 11
42.7709
 21
-25.3635
  0
LINE
  8
0
 10
42.7709
 20
-25.3635
 11
43.76
 21
-26.2439
  0
LINE
  8
0
 10
43.76
 20
-26.2439
 11
44.8257
 21
-27.0256
  0
LINE
  8
0
 10
44.8257
 20
-27.0256
 11
45.0727
 21
-27.1783
  0
LINE
  8
0
 10
45.0727
 20
-27.1783
 11
46.2071
 21
-27.8554
  0
LINE
  8
0
 10
46.2071
 20
-27.8554
 11
47.4015
 21
-28.4228
  0
LINE
  8
0
 10
47.4015
 20
-28.4228
 11
48.6468
 21
-28.8762
  0
LINE
  8
0
 10
48.6468
 20
-28.8762
 11
49.9335
 21
-29.2121
  0
LINE
  8
0
 10
49.9335
 20
-29.2121
 11
51.2518
 21
-29.4279
  0
LINE
  8
0
 10
51.2518
 20
-29.4279
 11
52.3738
 21
-29.5067
  0
LINE
  8
0
 10
52.3738
 20
-29.5067
 11
52.7632
 21
-29.5262
  0
LINE
  8
0
 10
52.7632
 20
-29.5262
 11
53.4026
 21
-29.542
  0
LINE
  8
0
 10
53.4026
 20
-29.542
 11
54.2281
 21
-29.5247
  0
LINE
  8
0
 10
15.5517
 20
37.3239
 11
14.463
 21
38.0249
  0
LINE
  8
0
 10
14.463
 20
38.0249
 11
9.87248
 21
44.6281
  0
LINE
  8
0
 10
9.87248
 20
44.6281
 11
9.6685
 21
45.7349
  0
LINE
  8
0
 10
9.6685
 20
45.7349
 11
11.2929
 21
52.6853
  0
LINE
  8
0
 10
11.2929
 20
52.6853
 11
11.638
 21
53.1453
  0
LINE
  8
0
 10
11.638
 20
53.1453
 11
18.7175
 21
57.3699
  0
LINE
  8
0
 10
18.7175
 20
57.3699
 11
20.745
 21
57.7039
  0
LINE
  8
0
 10
20.745
 20
57.7039
 11
29.1284
 21
55.9773
  0
LINE
  8
0
 10
29.1284
 20
55.9773
 11
30.5334
 21
55.0727
  0
LINE
  8
0
 10
30.5334
 20
55.0727
 11
34.6377
 21
49.1688
  0
LINE
  8
0
 10
34.6377
 20
49.1688
 11
34.7584
 21
48.5543
  0
LINE
  8
0
 10
34.7584
 20
48.5543
 11
33.0195
 21
41.1139
  0
LINE
  8
0
 10
33.0195
 20
41.1139
 11
32.218
 21
40.0455
  0
LINE
  8
0
 10
32.218
 20
40.0455
 11
25.1736
 21
35.8691
  0
LINE
  8
0
 10
25.1736
 20
35.8691
 11
23.7881
 21
35.6408
  0
LINE
  8
0
 10
23.7881
 20
35.6408
 11
15.5517
 21
37.3239
  0
LINE
  8
0
 10
3.42897
 20
7.94368
 11
3.21535
 21
8.00166
  0
LINE
  8
0
 10
3.21535
 20
8.00166
 11
3.00481
 21
8.12486
  0
LINE
  8
0
 10
3.00481
 20
8.12486
 11
2.49097
 21
8.91505
  0
LINE
  8
0
 10
2.49097
 20
8.91505
 11
1.65048
 21
9.99626
  0
LINE
  8
0
 10
1.65048
 20
9.99626
 11
0.725784
 21
10.9973
  0
LINE
  8
0
 10
0.725784
 20
10.9973
 11
-0.276077
 21
11.9104
  0
LINE
  8
0
 10
-0.276077
 20
11.9104
 11
-1.34752
 21
12.7289
  0
LINE
  8
0
 10
-1.34752
 20
12.7289
 11
-2.48035
 21
13.4463
  0
LINE
  8
0
 10
-2.48035
 20
13.4463
 11
-3.66597
 21
14.0572
  0
LINE
  8
0
 10
-3.66597
 20
14.0572
 11
-4.31624
 21
14.3795
  0
LINE
  8
0
 10
-4.31624
 20
14.3795
 11
-5.58302
 21
14.8945
  0
LINE
  8
0
 10
-5.58302
 20
14.8945
 11
-6.88527
 21
15.2912
  0
LINE
  8
0
 10
-6.88527
 20
15.2912
 11
-8.21304
 21
15.5664
  0
LINE
  8
0
 10
-8.21304
 20
15.5664
 11
-9.55624
 21
15.7181
  0
LINE
  8
0
 10
-9.55624
 20
15.7181
 11
-10.9046
 21
15.7451
  0
LINE
  8
0
 10
-10.9046
 20
15.7451
 11
-12.248
 21
15.6472
  0
LINE
  8
0
 10
-12.248
 20
15.6472
 11
-12.502
 21
15.6096
  0
LINE
  8
0
 10
-12.502
 20
15.6096
 11
-12.7688
 21
15.5605
  0
LINE
  8
0
 10
-12.7688
 20
15.5605
 11
-13.4503
 21
15.8017
  0
LINE
  8
0
 10
-13.4503
 20
15.8017
 11
-13.8757
 21
16.2113
  0
LINE
  8
0
 10
-13.8757
 20
16.2113
 11
-13.9628
 21
16.4404
  0
LINE
  8
0
 10
-13.9628
 20
16.4404
 11
-13.8064
 21
16.7374
  0
LINE
  8
0
 10
-13.8064
 20
16.7374
 11
-13.5385
 21
17.5749
  0
LINE
  8
0
 10
-13.5385
 20
17.5749
 11
-13.4177
 21
18.4562
  0
LINE
  8
0
 10
-13.4177
 20
18.4562
 11
-13.4486
 21
19.3474
  0
LINE
  8
0
 10
-13.4486
 20
19.3474
 11
-13.6299
 21
20.2142
  0
LINE
  8
0
 10
-13.6299
 20
20.2142
 11
-13.9548
 21
21.0233
  0
LINE
  8
0
 10
-13.9548
 20
21.0233
 11
-14.4106
 21
21.7437
  0
LINE
  8
0
 10
-14.4106
 20
21.7437
 11
-14.98
 21
22.3477
  0
LINE
  8
0
 10
-14.98
 20
22.3477
 11
-15.6411
 21
22.812
  0
LINE
  8
0
 10
-15.6411
 20
22.812
 11
-16.3683
 21
23.1187
  0
LINE
  8
0
 10
-16.3683
 20
23.1187
 11
-16.6619
 21
23.1671
  0
LINE
  8
0
 10
-16.6619
 20
23.1671
 11
-16.8134
 21
23.2789
  0
LINE
  8
0
 10
-16.8134
 20
23.2789
 11
-17.31
 21
23.8616
  0
LINE
  8
0
 10
-17.31
 20
23.8616
 11
-17.5961
 21
24.5069
  0
LINE
  8
0
 10
-17.5961
 20
24.5069
 11
-17.6778
 21
25.135
  0
LINE
  8
0
 10
-17.6778
 20
25.135
 11
-17.6352
 21
25.7544
  0
LINE
  8
0
 10
-17.6352
 20
25.7544
 11
-17.6091
 21
25.819
  0
LINE
  8
0
 10
-17.6091
 20
25.819
 11
-16.5094
 21
26.6535
  0
LINE
  8
0
 10
-16.5094
 20
26.6535
 11
-15.4839
 21
27.5704
  0
LINE
  8
0
 10
-15.4839
 20
27.5704
 11
-14.5289
 21
28.5704
  0
LINE
  8
0
 10
-14.5289
 20
28.5704
 11
-13.6517
 21
29.6459
  0
LINE
  8
0
 10
-13.6517
 20
29.6459
 11
-12.859
 21
30.7885
  0
LINE
  8
0
 10
-12.859
 20
30.7885
 11
-12.1568
 21
31.9897
  0
LINE
  8
0
 10
-12.1568
 20
31.9897
 11
-11.5504
 21
33.2403
  0
LINE
  8
0
 10
-11.5504
 20
33.2403
 11
-11.0445
 21
34.5308
  0
LINE
  8
0
 10
-11.0445
 20
34.5308
 11
-10.6429
 21
35.8513
  0
LINE
  8
0
 10
-10.6429
 20
35.8513
 11
-10.3487
 21
37.1918
  0
LINE
  8
0
 10
-10.3487
 20
37.1918
 11
-10.164
 21
38.5421
  0
LINE
  8
0
 10
-10.164
 20
38.5421
 11
-10.1196
 21
39.378
  0
LINE
  8
0
 10
-10.1196
 20
39.378
 11
-9.17325
 21
40.1264
  0
LINE
  8
0
 10
-9.17325
 20
40.1264
 11
-8.09222
 21
40.5424
  0
LINE
  8
0
 10
-8.09222
 20
40.5424
 11
-7.77534
 21
40.6172
  0
LINE
  8
0
 10
-7.77534
 20
40.6172
 11
-6.12767
 21
40.8795
  0
LINE
  8
0
 10
-6.12767
 20
40.8795
 11
-4.41919
 21
41.1082
  0
LINE
  8
0
 10
-4.41919
 20
41.1082
 11
-1.45224
 21
41.5168
  0
LINE
  8
0
 10
-1.45224
 20
41.5168
 11
1.05386
 21
41.8088
  0
LINE
  8
0
 10
1.05386
 20
41.8088
 11
2.73917
 21
41.9764
  0
LINE
  8
0
 10
2.73917
 20
41.9764
 11
3.63614
 21
42.0699
  0
LINE
  8
0
 10
3.63614
 20
42.0699
 11
4.82742
 21
42.0996
  0
LINE
  8
0
 10
4.82742
 20
42.0996
 11
5.02469
 21
42.0788
  0
LINE
  8
0
 10
5.02469
 20
42.0788
 11
6.09468
 21
41.7528
  0
LINE
  8
0
 10
6.09468
 20
41.7528
 11
6.29463
 21
41.5915
  0
LINE
  8
0
 10
6.29463
 20
41.5915
 11
6.59813
 21
41.3341
  0
LINE
  8
0
 10
6.59813
 20
41.3341
 11
7.03781
 21
40.2336
  0
LINE
  8
0
 10
7.03781
 20
40.2336
 11
7.65076
 21
39.0324
  0
LINE
  8
0
 10
7.65076
 20
39.0324
 11
8.0576
 21
38.3183
  0
LINE
  8
0
 10
8.0576
 20
38.3183
 11
8.75978
 21
37.2046
  0
LINE
  8
0
 10
8.75978
 20
37.2046
 11
9.564
 21
36.1514
  0
LINE
  8
0
 10
9.564
 20
36.1514
 11
10.4641
 21
35.1667
  0
LINE
  8
0
 10
10.4641
 20
35.1667
 11
11.4533
 21
34.2579
  0
LINE
  8
0
 10
11.4533
 20
34.2579
 11
12.524
 21
33.4321
  0
LINE
  8
0
 10
12.524
 20
33.4321
 11
13.668
 21
32.6955
  0
LINE
  8
0
 10
13.668
 20
32.6955
 11
14.8767
 21
32.0537
  0
LINE
  8
0
 10
14.8767
 20
32.0537
 11
16.1409
 21
31.5116
  0
LINE
  8
0
 10
16.1409
 20
31.5116
 11
17.4509
 21
31.0733
  0
LINE
  8
0
 10
17.4509
 20
31.0733
 11
18.7968
 21
30.7421
  0
LINE
  8
0
 10
18.7968
 20
30.7421
 11
20.1683
 21
30.5206
  0
LINE
  8
0
 10
20.1683
 20
30.5206
 11
21.555
 21
30.4104
  0
LINE
  8
0
 10
21.555
 20
30.4104
 11
22.9464
 21
30.4125
  0
LINE
  8
0
 10
22.9464
 20
30.4125
 11
24.3318
 21
30.5267
  0
LINE
  8
0
 10
24.3318
 20
30.5267
 11
25.7007
 21
30.7522
  0
LINE
  8
0
 10
25.7007
 20
30.7522
 11
27.0427
 21
31.0873
  0
LINE
  8
0
 10
27.0427
 20
31.0873
 11
28.3475
 21
31.5295
  0
LINE
  8
0
 10
28.3475
 20
31.5295
 11
29.2185
 21
31.908
  0
LINE
  8
0
 10
29.2185
 20
31.908
 11
29.2755
 21
31.9033
  0
LINE
  8
0
 10
29.2755
 20
31.9033
 11
29.8026
 21
31.7676
  0
LINE
  8
0
 10
29.8026
 20
31.7676
 11
30.1279
 21
31.6364
  0
LINE
  8
0
 10
30.1279
 20
31.6364
 11
30.2221
 21
31.5737
  0
LINE
  8
0
 10
30.2221
 20
31.5737
 11
30.7869
 21
31.0783
  0
LINE
  8
0
 10
30.7869
 20
31.0783
 11
31.1464
 21
30.4639
  0
LINE
  8
0
 10
31.1464
 20
30.4639
 11
31.3033
 21
29.7665
  0
LINE
  8
0
 10
31.3033
 20
29.7665
 11
31.207
 21
29.1107
  0
LINE
  8
0
 10
31.207
 20
29.1107
 11
31.1532
 21
29.0306
  0
LINE
  8
0
 10
31.1532
 20
29.0306
 11
30.64
 21
28.4182
  0
LINE
  8
0
 10
30.64
 20
28.4182
 11
29.8443
 21
27.2709
  0
LINE
  8
0
 10
29.8443
 20
27.2709
 11
29.1523
 21
26.0548
  0
LINE
  8
0
 10
29.1523
 20
26.0548
 11
28.5694
 21
24.7793
  0
LINE
  8
0
 10
28.5694
 20
24.7793
 11
28.1
 21
23.454
  0
LINE
  8
0
 10
28.1
 20
23.454
 11
27.7477
 21
22.0891
  0
LINE
  8
0
 10
27.7477
 20
22.0891
 11
27.5151
 21
20.695
  0
LINE
  8
0
 10
27.5151
 20
20.695
 11
27.404
 21
19.2822
  0
LINE
  8
0
 10
27.404
 20
19.2822
 11
27.3821
 21
18.9278
  0
LINE
  8
0
 10
27.3821
 20
18.9278
 11
27.393
 21
17.549
  0
LINE
  8
0
 10
27.393
 20
17.549
 11
27.4332
 21
17.1298
  0
LINE
  8
0
 10
27.4332
 20
17.1298
 11
27.1976
 21
16.5172
  0
LINE
  8
0
 10
27.1976
 20
16.5172
 11
26.9666
 21
16.1521
  0
LINE
  8
0
 10
26.9666
 20
16.1521
 11
26.517
 21
15.7615
  0
LINE
  8
0
 10
26.517
 20
15.7615
 11
26.0103
 21
15.4157
  0
LINE
  8
0
 10
26.0103
 20
15.4157
 11
24.8481
 21
14.8594
  0
LINE
  8
0
 10
24.8481
 20
14.8594
 11
22.3428
 21
13.8974
  0
LINE
  8
0
 10
22.3428
 20
13.8974
 11
20.0993
 21
13.108
  0
LINE
  8
0
 10
20.0993
 20
13.108
 11
18.9294
 21
12.8094
  0
LINE
  8
0
 10
18.9294
 20
12.8094
 11
18.2993
 21
12.7418
  0
LINE
  8
0
 10
18.2993
 20
12.7418
 11
18.079
 21
12.7309
  0
LINE
  8
0
 10
18.079
 20
12.7309
 11
17.6417
 21
12.9071
  0
LINE
  8
0
 10
17.6417
 20
12.9071
 11
16.7073
 21
13.0709
  0
LINE
  8
0
 10
16.7073
 20
13.0709
 11
15.7581
 21
13.0371
  0
LINE
  8
0
 10
15.7581
 20
13.0371
 11
14.8361
 21
12.8073
  0
LINE
  8
0
 10
14.8361
 20
12.8073
 11
13.9803
 21
12.3913
  0
LINE
  8
0
 10
13.9803
 20
12.3913
 11
13.2293
 21
11.8076
  0
LINE
  8
0
 10
13.2293
 20
11.8076
 11
12.6156
 21
11.0816
  0
LINE
  8
0
 10
12.6156
 20
11.0816
 11
12.4424
 21
10.7594
  0
LINE
  8
0
 10
12.4424
 20
10.7594
 11
12.3151
 21
10.6559
  0
LINE
  8
0
 10
12.3151
 20
10.6559
 11
11.1047
 21
10.0333
  0
LINE
  8
0
 10
11.1047
 20
10.0333
 11
9.56084
 21
9.47255
  0
LINE
  8
0
 10
9.56084
 20
9.47255
 11
7.62091
 21
8.86702
  0
LINE
  8
0
 10
7.62091
 20
8.86702
 11
5.90741
 21
8.30809
  0
LINE
  8
0
 10
5.90741
 20
8.30809
 11
4.58353
 21
7.95859
  0
LINE
  8
0
 10
4.58353
 20
7.95859
 11
4.05528
 21
7.8941
  0
LINE
  8
0
 10
4.05528
 20
7.8941
 11
3.42897
 21
7.94368
  0
LINE
  8
0
 10
38.5837
 20
7.58578
 11
37.4561
 21
8.26469
  0
LINE
  8
0
 10
37.4561
 20
8.26469
 11
32.355
 21
15.0276
  0
LINE
  8
0
 10
32.355
 20
15.0276
 11
32.0103
 21
16.3437
  0
LINE
  8
0
 10
32.0103
 20
16.3437
 11
33.0158
 21
24.5562
  0
LINE
  8
0
 10
33.0158
 20
24.5562
 11
33.665
 21
25.7258
  0
LINE
  8
0
 10
33.665
 20
25.7258
 11
40.0674
 21
30.5988
  0
LINE
  8
0
 10
40.0674
 20
30.5988
 11
41.0189
 21
30.838
  0
LINE
  8
0
 10
41.0189
 20
30.838
 11
49.2526
 21
29.5744
  0
LINE
  8
0
 10
49.2526
 20
29.5744
 11
50.4393
 21
28.8599
  0
LINE
  8
0
 10
50.4393
 20
28.8599
 11
51.4638
 21
27.5107
  0
LINE
  8
0
 10
51.4638
 20
27.5107
 11
55.555
 21
22.0867
  0
LINE
  8
0
 10
55.555
 20
22.0867
 11
55.9225
 21
20.7315
  0
LINE
  8
0
 10
55.9225
 20
20.7315
 11
54.9057
 21
12.4271
  0
LINE
  8
0
 10
54.9057
 20
12.4271
 11
54.3201
 21
11.3981
  0
LINE
  8
0
 10
54.3201
 20
11.3981
 11
48.095
 21
6.66002
  0
LINE
  8
0
 10
48.095
 20
6.66002
 11
46.7663
 21
6.32596
  0
LINE
  8
0
 10
46.7663
 20
6.32596
 11
38.5837
 21
7.58578
  0
LINE
  8
0
 10
-16.8334
 20
-11.4667
 11
-17.4922
 21
-10.9634
  0
LINE
  8
0
 10
-17.4922
 20
-10.9634
 11
-21.8677
 21
-3.57587
  0
LINE
  8
0
 10
-21.8677
 20
-3.57587
 11
-22.1734
 21
-1.72238
  0
LINE
  8
0
 10
-22.1734
 20
-1.72238
 11
-20.4039
 21
6.69243
  0
LINE
  8
0
 10
-20.4039
 20
6.69243
 11
-19.8853
 21
7.46777
  0
LINE
  8
0
 10
-19.8853
 20
7.46777
 11
-13.518
 21
11.6456
  0
LINE
  8
0
 10
-13.518
 20
11.6456
 11
-12.7237
 21
11.7679
  0
LINE
  8
0
 10
-12.7237
 20
11.7679
 11
-5.02885
 21
9.80222
  0
LINE
  8
0
 10
-5.02885
 20
9.80222
 11
-3.97421
 21
9.01093
  0
LINE
  8
0
 10
-3.97421
 20
9.01093
 11
0.286697
 21
1.83002
  0
LINE
  8
0
 10
0.286697
 20
1.83002
 11
0.515839
 21
0.440491
  0
LINE
  8
0
 10
0.515839
 20
0.440491
 11
-1.19525
 21
-7.69675
  0
LINE
  8
0
 10
-1.19525
 20
-7.69675
 11
-1.95563
 21
-8.83348
  0
LINE
  8
0
 10
-1.95563
 20
-8.83348
 11
-8.60661
 21
-13.1974
  0
LINE
  8
0
 10
-8.60661
 20
-13.1974
 11
-9.48412
 21
-13.3441
  0
LINE
  8
0
 10
-9.48412
 20
-13.3441
 11
-16.8334
 21
-11.4667
  0
LINE
  8
0
 10
15.9172
 20
6.8654
 11
15.3938
 21
7.10023
  0
LINE
  8
0
 10
15.3938
 20
7.10023
 11
15.2163
 21
7.2668
  0
LINE
  8
0
 10
15.2163
 20
7.2668
 11
15.1429
 21
7.74583
  0
LINE
  8
0
 10
15.1429
 20
7.74583
 11
15.1707
 21
8.03244
  0
LINE
  8
0
 10
15.1707
 20
8.03244
 11
15.2454
 21
8.31082
  0
LINE
  8
0
 10
15.2454
 20
8.31082
 11
15.5261
 21
8.813
  0
LINE
  8
0
 10
15.5261
 20
8.813
 11
15.9546
 21
9.19795
  0
LINE
  8
0
 10
15.9546
 20
9.19795
 11
16.4844
 21
9.42395
  0
LINE
  8
0
 10
16.4844
 20
9.42395
 11
17.0581
 21
9.46652
  0
LINE
  8
0
 10
17.0581
 20
9.46652
 11
17.6136
 21
9.32103
  0
LINE
  8
0
 10
17.6136
 20
9.32103
 11
18.0221
 21
9.0489
  0
LINE
  8
0
 10
18.0221
 20
9.0489
 11
18.0964
 21
8.82335
  0
LINE
  8
0
 10
18.0964
 20
8.82335
 11
18.0885
 21
8.24974
  0
LINE
  8
0
 10
18.0885
 20
8.24974
 11
17.8942
 21
7.70877
  0
LINE
  8
0
 10
17.8942
 20
7.70877
 11
17.5347
 21
7.25908
  0
LINE
  8
0
 10
17.5347
 20
7.25908
 11
17.049
 21
6.94937
  0
LINE
  8
0
 10
17.049
 20
6.94937
 11
16.4896
 21
6.81323
  0
LINE
  8
0
 10
16.4896
 20
6.81323
 11
15.9172
 21
6.8654
  0
LINE
  8
0
 10
40.7685
 20
-2.16182
 11
40.2451
 21
-1.92699
  0
LINE
  8
0
 10
40.2451
 20
-1.92699
 11
40.0676
 21
-1.76044
  0
LINE
  8
0
 10
40.0676
 20
-1.76044
 11
39.9942
 21
-1.2814
  0
LINE
  8
0
 10
39.9942
 20
-1.2814
 11
40.022
 21
-0.994797
  0
LINE
  8
0
 10
40.022
 20
-0.994797
 11
40.0967
 21
-0.716415
  0
LINE
  8
0
 10
40.0967
 20
-0.716415
 11
40.3774
 21
-0.214233
  0
LINE
  8
0
 10
40.3774
 20
-0.214233
 11
40.8059
 21
0.1707
  0
LINE
  8
0
 10
40.8059
 20
0.1707
 11
41.3356
 21
0.396713
  0
LINE
  8
0
 10
41.3356
 20
0.396713
 11
41.9094
 21
0.43927
  0
LINE
  8
0
 10
41.9094
 20
0.43927
 11
42.4649
 21
0.293777
  0
LINE
  8
0
 10
42.4649
 20
0.293777
 11
42.8734
 21
0.0216522
  0
LINE
  8
0
 10
42.8734
 20
0.0216522
 11
42.9477
 21
-0.203888
  0
LINE
  8
0
 10
42.9477
 20
-0.203888
 11
42.9398
 21
-0.777496
  0
LINE
  8
0
 10
42.9398
 20
-0.777496
 11
42.7455
 21
-1.31847
  0
LINE
  8
0
 10
42.7455
 20
-1.31847
 11
42.386
 21
-1.76816
  0
LINE
  8
0
 10
42.386
 20
-1.76816
 11
41.9003
 21
-2.07787
  0
LINE
  8
0
 10
41.9003
 20
-2.07787
 11
41.3409
 21
-2.214
  0
LINE
  8
0
 10
41.3409
 20
-2.214
 11
40.7685
 21
-2.16182
  0
ENDSEC
  0
SECTION
  2
OBJECTS
  0
DICTIONARY
  0
ENDSEC
  0
EOF
