<?xml version="1.0" encoding="UTF-8" standalone="no"?>
<svg
   xmlns:dc="http://purl.org/dc/elements/1.1/"
   xmlns:cc="http://creativecommons.org/ns#"
   xmlns:rdf="http://www.w3.org/1999/02/22-rdf-syntax-ns#"
   xmlns:svg="http://www.w3.org/2000/svg"
   xmlns="http://www.w3.org/2000/svg"
   id="svg6"
   version="1.1"
   viewBox="-32 -75 69 136"
   height="136"
   width="69">
  <metadata
     id="metadata12">
    <rdf:RDF>
      <cc:Work
         rdf:about="">
        <dc:format>image/svg+xml</dc:format>
        <dc:type
           rdf:resource="http://purl.org/dc/dcmitype/StillImage" />
        <dc:title>OpenSCAD Model</dc:title>
      </cc:Work>
    </rdf:RDF>
  </metadata>
  <defs
     id="defs10" />
  <title
     id="title2">OpenSCAD Model</title>
  <path
     style="fill:#d3d3d3;stroke:#000000;stroke-width:0.5"
     id="path4"
     d="M 5.4135915,22.413946 5.56116,19.0136 6.96004,18.6991 8.32619,18.2639 9.6492,17.7114 l 1.2698,-0.6657 1.207,-0.7737 1.135,-0.876 1.0542,-0.9715 0.9656,-1.0596 0.8695,-1.1397 0.7668,-1.2111 0.6584,-1.27333 0.5448,-1.32578 0.0604,-0.12933 0.2514,-0.29672 0.5906,-0.42568 0.5225,-0.2136 0.6582,-0.1142 0.8103,0.06618 0.9697,0.21496 0.7414,0.27612 0.4055,0.22199 0.3286,0.59084 0.5657,0.66166 0.6894,0.54196 0.7865,0.40143 0.8534,0.2454 0.8876,0.08 0.8875,-0.0884 0.8534,-0.2536 0.7865,-0.4089 0.6894,-0.54853 0.0559,-0.06585 0.0831,0.01316 0.8485,0.37822 0.5925,0.516 0.0112,0.0117 0.0284,0.0435 -0.0189,0.1324 0.0369,1.3828 0.1378,1.3677 0.2378,1.3422 0.3357,1.3064 0.4313,1.2606 0.5236,1.2054 0.6117,1.1409 0.6954,1.0677 0.7737,0.9864 0.7103,0.7537 V -1.70125 L 36.0649,-1.15012 35.271,-0.0921021 34.5539,1.04008 33.9191,2.2379 33.8062,2.50916 33.5826,2.62328 33.4882,2.66449 32.7637,2.68985 32.095,2.45677 31.9383,2.39594 31.2843,1.98546 31.1717,1.87483 30.8656,1.31801 30.2998,0.656326 29.6105,0.114365 28.8242,-0.286896 27.9705,-0.53244 27.083,-0.612457 26.1955,-0.523972 25.3421,-0.270432 24.5556,0.138443 23.8662,0.686966 23.7497,0.824265 23.5116,0.847656 22.5478,0.793671 21.2967,0.597961 20.7366,0.4832 20.4911,0.407288 19.997,0.198807 19.4886,-0.105957 19.0818,-0.480347 18.6451,-1.03319 18.5186,-1.4787 l -0.4351,-1.36554 -0.5525,-1.3224 -0.6658,-1.26923 -0.7739,-1.20637 -0.8761,-1.13434 -0.9717,-1.0537 -1.0599,-0.96499 -1.1401,-0.86903 -1.2114,-0.7663 -1.27374,-0.6579 -1.32621,-0.5444 -0.58873,-0.174 -0.59654,-0.5565 -0.39748,-0.5939 -0.22556,-0.5922 -0.12108,-0.5539 -0.0619,-0.9581 -0.00569,-1.8264 -0.00105,-1.982 -0.01404,-0.3637 0.04399,-1.7084 0.14801,-0.943 0.14247,-0.3589 0.41064,-0.5499 0.19985,-0.0448 1.31871,-0.4059 1.27505,-0.5118 1.2217,-0.6136 1.159,-0.7109 1.0875,-0.8027 1.0078,-0.8883 0.9203,-0.9673 0.8259,-1.0389 0.4398,-0.6262 0.7472,-1.1361 0.6378,-1.1931 0.5234,-1.2409 0.4051,-1.2794 0.2837,-1.3081 0.1602,-1.3268 0.0113,-0.2711 0.0354,-1.3354 -0.0896,-1.334 -0.2141,-1.3222 -0.3367,-1.3006 -0.457,-1.2689 -0.5736,-1.2276 -0.7666,-1.3154 -0.0215,-0.2579 0.2124,-0.6719 0.3719,-0.5173 0.6937,-0.696 0.8622,-0.7351 1.2952,-1.1215 1.2836,-1.0762 0.9559,-0.7961 0.6439,-0.5164 1.8813,-1.5017 2.0291,-1.5498 0.2418,-0.1926 0.7722,-0.5109 0.572,-0.2395 0.439,-0.0631 1.1133,0.9316 1.1224,0.8209 1.1674,0.7458 1.2032,0.665 1.2301,0.5792 1.2476,0.4888 0.4492,0.1414 v -6.8843 l -0.5957,-0.1644 -1.2508,-0.7992 -5.3841,-6.1623 -0.4944,-1.1476 -0.0713,-4.2951 -0.1737,-0.4542 -2.7503,-1.2307 -0.647,0.2057 -0.8621,0.9994 -0.6153,0.7572 -0.3288,0.6298 -0.5046,1.787 -0.112,0.4615 0.0623,0.9581 0.1822,1.1475 0.2899,1.1605 0.3952,1.1646 0.4977,1.1598 0.4138,0.7956 -1.5118,1.1242 -1.1399,0.8562 -1.7944,1.3946 -0.1872,0.1533 -1.7805,1.4276 -1.138,0.9678 -1.3302,1.1063 -1.0376,0.902 -1.6606,1.4265 -0.3125,0.2268 -0.6011,0.3777 -0.8719,0.3013 -0.4357,0.0101 -0.2523,-0.1494 -1.24108,-0.5816 -1.30341,-0.484 -1.33629,-0.3742 -1.36552,-0.2645 -1.38434,-0.1526 -1.39264,-0.0398 -1.39033,0.0736 -1.377445,0.1862 -1.354085,0.2975 -1.3204,0.4065 -1.27669,0.5124 -1.28418,0.6463 -0.42707,-0.0347 -0.58475,-0.1394 -0.81647,-0.4295 -0.86101,-0.664 -1.19192,-1.014 -1.22357,-1.0035 -0.9062,-0.7265 -1.0131,-0.8515 -2.1787,-1.6941 -1.138,-0.8388 -1.2953,-0.9993 -1.4539,-1.0654 -1.2569,-0.8883 0.4059,-0.7889 0.4876,-1.1546 0.3839,-1.1589 0.2775,-1.1544 0.1688,-1.1411 0.0589,-1.1192 -0.0119,-0.2521 -0.6068,-2.2427 -0.136,-0.2674 -0.1982,-0.3595 -1.4855,-1.7593 -0.6456,-0.2137 -2.7013,1.1605 -0.0472,0.1289 -0.1291,0.3257 -0.01,4.7137 -0.4935,1.1686 -5.3641,6.1501 -1.2803,0.8161 -0.1971,0.0545 v 6.8613 l 0.028,-0.0088 1.2546,-0.4909 1.2357,-0.5805 1.2075,-0.6657 1.1701,-0.7459 1.1237,-0.8203 1.0325,-0.8584 0.2517,0.0128 0.5044,0.1408 0.5886,0.2873 1.193,0.8384 1.5552,1.1521 1.4447,1.1039 2.2797,1.7752 0.8006,0.663 0.7099,0.5796 1.3516,1.1285 1.1983,1.0144 0.4701,0.47 0.3257,0.4479 0.1482,0.2984 0.0992,0.5397 0.0011,0.0196 -0.0137,0.0857 -0.2011,0.3069 -0.6406,1.1985 -0.5235,1.2409 -0.4051,1.2794 -0.2837,1.308 -0.1601,1.3269 -0.0114,0.2711 -0.0354,1.3354 0.0897,1.334 0.214,1.3222 0.3368,1.3006 0.4569,1.2689 0.5736,1.2276 1.0649,1.8265 0.7696,1.0844 0.86774,1.0183 0.95919,0.9445 1.04339,0.8634 1.11962,0.7759 1.18735,0.6823 1.24602,0.5837 1.29523,0.4805 1.12867,0.3161 0.15401,0.1505 0.301469,0.415 0.118316,0.2722 0.198578,1.0171 0.060868,1.4437 -0.013718,1.4241 0.010879,1.5275 -0.022079,1.573 -0.102829,1.033 -0.186173,0.727 -0.285921,0.4985 -0.45682,0.4659 -0.39027,0.3015 -1.10175,0.3486 -1.32302,0.5526 -1.26984,0.6656 -1.20699,0.7738 -1.13494,0.87596 -1.05425,0.9715 -0.96558,1.05961 -0.86945,1.13971 -0.7669,1.21111 -0.6583,1.27328 -0.5448,1.32578 -0.4272,1.36816 -0.1157,0.36113 -0.0512,0.14516 -0.6143,0.653244 -0.4684,0.3125305 -0.7286,0.3497315 -1.1672,0.256668 -1.0846,0.069412 -0.5001,-0.04602 -0.1311,-0.153366 -0.6894,-0.541962 -0.7865,-0.401382 -0.8534,-0.245423 -0.8875,-0.080017 -0.8876,0.088455 -0.8534,0.253556 -0.7865,0.4088894 -0.6894,0.5485226 -0.5657,0.667071 -0.2775,0.5273 -0.1612,0.15333 -0.4965,0.3232 -0.5662,0.25281 -0.6116,0.19102 -1.1361,0.24803 -0.3497,0.01987 -0.4454,-0.04874 -0.3375,-0.11822 -0.6426,-1.17411 -0.7346,-1.12582 -0.496,-0.642578 V 22.0766 l 0.1425,-0.1527 0.7695,-0.992 0.6898,-1.0727 0.6048,-1.1452 0.5152,-1.2088 0.4216,-1.2634 0.3249,-1.3084 0.2257,-1.3432 0.1247,-1.3681 0.0228,-1.3823 -0.03,-0.5176 0.2228,-0.3023 0.5205,-0.4132 0.8071,-0.29054 0.4883,-0.13696 0.9782,-0.17741 0.1507,0.1763 0.6894,0.54194 0.7865,0.40147 0.8534,0.2454 0.8875,0.08 0.8875,-0.0885 0.8534,-0.2535 0.7865,-0.40893 0.6894,-0.54852 0.5658,-0.66707 0.3613,-0.65312 0.0159,-0.01272 0.65,-0.26815 0.8073,-0.19783 0.8597,-0.06116 0.7094,0.17781 0.4581,0.27353 0.662,0.55662 0.0772,0.21441 0.5526,1.32241 0.6657,1.26922 0.7739,1.2064 0.87615,1.1343 0.97173,1.0537 1.0599,0.965 1.14003,0.869 1.21148,0.7663 1.27369,0.6579 1.32623,0.5444 1.36866,0.4268 1.400693,0.3059 1.422017,0.1827 0.1082729,3.063304 -0.11406,3.314871 -0.065763,3.517925 -1.37952,0.1621 -1.35846,0.2688 -1.32703,0.3734 -1.28552,0.4752 -1.23419,0.5733 -1.17352,0.667 -1.1039,0.7558 -1.02585,0.8387 -0.94003,0.9153 -0.84701,0.9849 -0.7476,1.047 -0.6425,1.1011 -0.4397,0.9139 -0.5486,1.1818 -0.1998,0.5794 -0.1504,0.1454 -0.608,0.5195 -0.7473,0.2939 -0.7496,0.064 -0.9346,-0.1714 -0.7069,-0.4584 -0.2581,-0.9196 -0.4666,-1.2426 -0.5673,-1.2204 -0.6636,-1.189 -0.7548,-1.1485 -0.8403,-1.0993 -0.9195,-1.0416 -0.9916,-0.9762 -1.0561,-0.9032 -1.1127,-0.8233 -1.1607,-0.7373 -1.2,-0.6456 -1.2301,-0.549 -1.2508,-0.4481 -1.262,-0.344 -0.6664,-0.125 v 6.4212 l 2.0826,0.4792 1.1379,0.7197 5.3424,6.4811 0.4723,1.2576 -0.1113,7.3763 -0.4115,0.8381 -3.8297,2.7881 -0.5407,0.092 -4.142,-0.9603 v 5.3862 l 0.467,0.0478 1.2396,0.0189 1.2127,-0.0909 1.1764,-0.2002 1.1312,-0.3078 1.0774,-0.4132 1.2087,-0.6006 1.0449,-0.5304 0.9732,-0.6315 0.894,-0.7278 0.6125,-0.6212 0.3357,-0.1054 0.3999,0.0073 0.1043,0.331 0.4204,0.756 0.5657,0.6617 0.6894,0.5419 0.7865,0.4014 0.8534,0.2454 0.8881,0.0801 0.887,-0.0885 0.8534,-0.2536 0.7865,-0.4089 0.6894,-0.5485 0.5657,-0.667 0.3828,-0.692 0.3615,-0.094 0.0176,0.0013 0.2249,0.0343 0.8583,0.976 0.94125,0.9163 1.02721,0.8396 1.10533,0.7566 1.17503,0.6677 1.23581,0.5738 1.28719,0.4755 1.32875,0.3736 1.360197,0.2689 1.381283,0.1621 1.3919,0.0541 1.3919,-0.0543 1.38132,-0.1624 1.3602,-0.2691 1.32872,-0.3739 1.28717,-0.4757 1.23584,-0.5741 1.175,-0.6679 1.1053,-0.7567 1.0272,-0.8398 0.9412,-0.9165 0.6557,-0.7619 0.2885,-0.0844 0.543,0.1094 0.2291,0.4119 0.5658,0.6617 0.6894,0.5419 0.7865,0.4014 0.8534,0.2455 0.888,0.08 0.8875,-0.0887 0.8529,-0.2534 0.7863,-0.4089 0.6896,-0.5485 0.5658,-0.667 0.4204,-0.76 0.1265,-0.4024 0.0676,-0.0112 0.2569,-0.0141 0.3297,0.0734 0.4055,0.4095 0.32,0.3066 0.8965,0.7294 0.9747,0.632 1.0453,0.5298 1.2289,0.5594 1.0767,0.4116 1.1296,0.3054 1.1736,0.1966 1.209,0.0866 1.2349,-0.0243 0.5468,-0.0589 v -5.3603 l -4.3501,1.0239 -0.318,-0.0533 -3.9318,-2.8606 -0.4371,-0.9085 -0.1696,-7.4296 0.4409,-1.2256 5.2912,-6.5942 1.1279,-0.7294 2.3466,-0.5568 v -6.3776 l -1.0373,0.2015 -1.2546,0.3517 -1.2427,0.4567 -1.2212,0.5581 -1.1904,0.6553 -1.1507,0.7475 -1.102,0.8341 -1.0451,0.9142 -0.9802,0.9874 -0.9078,1.0531 -0.8286,1.1108 -0.7429,1.1601 -0.6517,1.2004 -0.5555,1.2317 -0.4551,1.2536 -0.3069,1.1086 -0.6614,0.4151 -0.7274,0.1708 L 19.8822,40.871 19.7467,40.8468 19.2452,40.6782 18.9001,40.503 18.3997,40.0884 18.2161,39.8634 18.0386,39.3653 17.4899,38.1836 17.0494,37.2699 16.4069,36.1689 15.6593,35.122 14.8122,34.1373 13.8721,33.2222 12.8463,32.3836 11.7424,31.6281 10.5688,30.9612 9.33459,30.3881 8.04907,29.9132 6.72203,29.5401 5.36357,29.2715 5.2574315,25.187554 Z M -2.40929,-29.4453 l -6.10251,-5.5093 -0.53186,-1.1692 -0.15121,-7.435 0.33144,-0.7858 5.22595,-5.0632 1.88846,-0.758 8.58378,-0.0825 1.74866,0.6488 5.76028,5.1678 0.3747,0.802 0.1467,7.2155 -0.5141,1.2189 -5.81285,5.5945 -1.29052,0.518 -8.42431,0.0948 z m -0.34344,43.8215 -6.00812,-5.96983 -0.51147,-1.26695 -0.02442,-8.37836 0.50409,-1.26901 5.97319,-6.00662 1.26692,-0.5119 8.38175,-0.02572 1.27006,0.50412 5.97663,5.93683 0.5428,1.29891 0.0244,8.37835 L 14.108,8.36826 8.19843,14.3109 6.8989,14.8536 -1.52791,14.879 Z M -21.85,5.28893 -22.3378,5.05174 -22.439,4.95473 l 0.2596,-0.25139 0.4878,-0.24185 0.5407,-0.0851 0.5407,0.07995 0.4878,0.23719 0.1011,0.09697 -0.2596,0.25145 -0.4878,0.24183 -0.5406,0.0851 z m 48.3923,0.08914 -0.4877,-0.2372 -0.1012,-0.09702 0.2596,-0.25138 0.4878,-0.24184 0.5407,-0.08511 0.5407,0.07997 0.4877,0.23718 0.1012,0.09703 -0.2596,0.25137 -0.4878,0.24185 -0.5407,0.0851 z m -28.28199,49.45063 -1.73556,-0.6411 -5.8302,-5.2006 -0.05731,-0.1235 -8e-5,-6.7883 0.50769,-1.1234 5.99069,-5.345 1.26851,-0.4614 8.3819,-7e-4 1.26854,0.4611 5.95961,5.3065 0.5389,1.1607 10e-5,6.7867 -0.0584,0.1258 -5.74542,5.1556 -1.90397,0.7037 z M 19.6289,51.374 19.1411,51.1368 19.04,51.0398 l 0.2595,-0.2514 0.4878,-0.2418 0.5407,-0.0851 0.5407,0.0799 0.4878,0.2372 0.1011,0.097 -0.2596,0.2514 -0.4877,0.2419 -0.5407,0.0851 z m -35.5944,0.1376 -0.4878,-0.2372 -0.1011,-0.097 0.2596,-0.2514 0.4878,-0.2418 0.5406,-0.0851 0.5407,0.0799 0.4878,0.2372 0.1012,0.097 -0.2596,0.2514 -0.4878,0.2419 -0.5407,0.0851 z" />
</svg>
