<?xml version="1.0" standalone="no"?>
<!DOCTYPE svg PUBLIC "-//W3C//DTD SVG 1.1//EN" "http://www.w3.org/Graphics/SVG/1.1/DTD/svg11.dtd">
<svg width="46" height="32" viewBox="-10 -22 46 32" xmlns="http://www.w3.org/2000/svg" version="1.1">
<title>OpenSCAD Model</title>
<path d="
M -9.22798,0.702545 L -8.87697,2.76083 L -8.13797,4.69846 L -7.0433,6.43074 L -5.64082,7.88196 L -3.99181,8.98871
 L -2.16832,9.70261 L -0.250076,9.99245 L 3.53514,9.81216 L 5.46431,9.6653 L 7.3201,9.08812 L 9.02141,8.10588
 L 10.4939,6.76149 L 11.6731,5.11371 L 12.5076,3.23456 L 12.9609,1.20616 L 13.0132,-0.882828 L 12.6721,-2.88326
 L 35.2398,-15.9128 L 35.3684,-16.3039 L 35.327,-16.9016 L 35.1195,-17.6474 L 34.7663,-18.4682 L 34.3019,-19.2838
 L 33.7718,-20.0142 L 33.2279,-20.588 L 32.7235,-20.949 L 32.3078,-21.0618 L 32.0217,-20.9155 L 9.54532,-7.93883
 L 9.42604,-8.06224 L 7.77702,-9.16899 L 5.95354,-9.88289 L 4.03529,-10.1727 L 0.250076,-9.99245 L -1.67909,-9.84558
 L -3.53488,-9.2684 L -5.23618,-8.28616 L -6.70863,-6.94177 L -7.88789,-5.29399 L -8.7224,-3.41484 L -9.1757,-1.38644
 z
M -4.53664,-0.652039 L -4.26138,-2.57277 L -3.60988,-4.38162 L -2.61258,-5.99403 L -1.31613,-7.33459 L 0.218826,-8.34064
 L 1.51187,-8.81512 L 1.71675,-8.79146 L 3.42896,-8.17331 L 4.98082,-7.17299 L 6.29977,-5.83727 L 7.32417,-4.22861
 L 8.00609,-2.42223 L 8.31366,-0.502563 L 8.2325,1.44057 L 7.76637,3.31636 L 6.93712,5.03708 L 5.78348,6.52226
 L 4.35942,7.70248 L 2.73152,8.52255 L 2.33025,8.6189 L 1.19719,8.35211 L -0.444458,7.53812 L -1.88834,6.3632
 L -3.06693,4.88234 L -3.92511,3.16473 L -4.42278,1.29074 z
" stroke="black" fill="lightgray" stroke-width="0.5"/></svg>
