<?xml version="1.0" standalone="no"?>
<!DOCTYPE svg PUBLIC "-//W3C//DTD SVG 1.1//EN" "http://www.w3.org/Graphics/SVG/1.1/DTD/svg11.dtd">
<svg width="93" height="127" viewBox="5 -54 93 127" xmlns="http://www.w3.org/2000/svg" version="1.1">
<title>OpenSCAD Model</title>
<path d="
M 66.9941,70.5567 L 68.2671,69.4982 L 75.4671,66.1162 L 76.4374,65.9904 L 81.6016,67.6331 L 82.589,69.7074
 L 83.0873,69.7306 L 85.0829,67.2557 L 85.0821,66.4539 L 84.7193,65.7559 L 83.7912,64.1357 L 83.5854,63.8759
 L 83.2053,63.4326 L 82.5557,62.8136 L 81.8171,62.2818 L 80.2584,61.1959 L 79.4607,60.7684 L 78.5881,60.4328
 L 77.6473,60.1917 L 76.6461,60.0468 L 76.6604,59.5116 L 76.7022,58.2304 L 76.7688,56.6666 L 76.7834,55.2813
 L 76.8192,54.4263 L 76.8399,52.9905 L 76.8815,50.9026 L 76.8647,49.4486 L 76.8682,48.082 L 76.8035,44.8078
 L 76.7762,43.3168 L 76.8133,42.4115 L 77.0228,41.312 L 77.4172,40.3798 L 78.1185,40.038 L 79.2118,39.3667
 L 80.2552,38.5922 L 81.241,37.7206 L 82.1614,36.7584 L 83.0096,35.713 L 83.7791,34.5922 L 84.464,33.4047
 L 85.0592,32.1595 L 85.56,30.866 L 85.9627,29.5341 L 86.2643,28.1739 L 86.4623,26.7958 L 86.5553,25.4103
 L 86.5427,24.0278 L 86.4245,22.6591 L 86.2015,21.3144 L 85.8756,20.0039 L 85.4491,18.7377 L 84.9254,17.5255
 L 84.3083,16.3763 L 83.6027,15.299 L 82.8138,14.3018 L 82.0269,13.4754 L 81.9428,12.5543 L 82.0249,11.9754
 L 82.1706,11.2469 L 82.5308,10.2319 L 83.0949,8.73894 L 83.2176,8.5412 L 83.6071,8.56619 L 84.7346,8.60654
 L 85.8484,8.52335 L 86.94,8.31729 L 87.3981,8.19989 L 88.4593,7.8725 L 89.4819,7.42632 L 90.4581,6.86469
 L 91.684,6.08611 L 92.5804,5.43237 L 93.4178,4.6756 L 94.1897,3.82156 L 94.8903,2.87675 L 95.5142,1.84836
 L 96.0568,0.744217 L 96.5144,-0.429031 L 96.8819,-1.65723 L 97.0396,-2.38312 L 97.2246,-3.63797 L 97.2253,-3.68077
 L 97.2093,-3.74803 L 97.2274,-4.01797 L 97.2454,-4.34444 L 95.412,-14.7866 L 95.382,-14.8604 L 94.7653,-16.1579
 L 94.5793,-16.4982 L 94.0522,-17.3464 L 93.2677,-18.4252 L 92.4189,-19.4254 L 91.5123,-20.3396 L 90.5548,-21.1605
 L 89.5536,-21.8821 L 88.7552,-22.3461 L 88.7346,-22.4262 L 88.6911,-22.7201 L 88.75,-22.9698 L 89.8571,-23.3468
 L 89.9144,-23.3791 L 90.5303,-23.759 L 92.3568,-25.4081 L 92.4087,-25.4587 L 92.6103,-26.1611 L 92.5046,-26.3523
 L 92.3492,-26.6662 L 91.2169,-28.8565 L 90.7079,-28.9688 L 86.9689,-27.7539 L 85.9142,-27.9352 L 79.4077,-31.7767
 L 78.3047,-32.9632 L 74.4452,-40.319 L 74.2202,-41.4783 L 75.3907,-47.9153 L 75.5514,-48.1135 L 77.8619,-48.8642
 L 79.887,-49.9302 L 79.9401,-50.082 L 80.0569,-50.4443 L 78.6797,-53.1084 L 78.0166,-53.2987 L 77.7927,-53.268
 L 76.851,-53.0243 L 75.2455,-52.4172 L 74.3337,-52.057 L 73.4863,-51.5901 L 73.0389,-51.2644 L 72.2623,-50.6945
 L 71.5624,-50.0258 L 70.9444,-49.2635 L 69.8273,-47.8641 L 69.3117,-47.0391 L 68.8843,-46.1351 L 68.5481,-45.1591
 L 68.3059,-44.1183 L 68.1593,-43.0209 L 68.1096,-41.875 L 68.1572,-40.6895 L 68.3016,-39.4734 L 68.5417,-38.2359
 L 68.8758,-36.9863 L 69.3013,-35.7344 L 69.8149,-34.4895 L 70.4127,-33.2611 L 71.0903,-32.0587 L 71.8423,-30.8913
 L 72.6633,-29.7678 L 73.5467,-28.6968 L 74.486,-27.6864 L 75.474,-26.7444 L 76.5032,-25.8778 L 77.5657,-25.0933
 L 78.6534,-24.3969 L 78.9433,-24.2386 L 78.9646,-23.8651 L 78.8887,-23.5492 L 77.8713,-23.2354 L 76.8487,-22.7891
 L 75.8724,-22.2275 L 74.5924,-21.4146 L 73.6972,-20.7617 L 72.8609,-20.0059 L 72.09,-19.1529 L 71.3903,-18.2093
 L 70.7671,-17.1823 L 70.2253,-16.0795 L 69.7688,-14.9095 L 69.7433,-14.8244 L 69.7176,-14.8238 L 68.9562,-14.9291
 L 67.914,-15.1441 L 66.8659,-15.4046 L 65.4117,-15.6993 L 63.8686,-15.9742 L 62.7096,-16.2224 L 61.079,-16.5411
 L 58.6794,-16.9451 L 56.6749,-17.2663 L 54.0395,-17.6655 L 52.9564,-17.8093 L 51.3483,-18.0497 L 49.0606,-18.3437
 L 48.0171,-18.5221 L 47.415,-18.6815 L 46.5354,-19.0765 L 45.8464,-19.6175 L 45.6837,-19.8455 L 45.2577,-21.3149
 L 44.7511,-22.6185 L 44.1299,-23.8767 L 43.8906,-24.28 L 43.1802,-25.4491 L 42.3684,-26.5558 L 41.4614,-27.5917
 L 40.4661,-28.549 L 39.3901,-29.4203 L 38.2415,-30.199 L 37.0292,-30.8792 L 35.7623,-31.4556 L 34.4505,-31.9241
 L 33.1037,-32.2808 L 31.7323,-32.5232 L 30.3466,-32.6494 L 28.9572,-32.6584 L 27.5746,-32.5502 L 26.2095,-32.3256
 L 24.8721,-31.9863 L 23.5727,-31.5348 L 22.3211,-30.9747 L 21.9324,-30.7663 L 20.7034,-30.0824 L 19.5428,-29.2962
 L 18.4595,-28.4138 L 17.4616,-27.4418 L 16.5568,-26.3876 L 15.752,-25.2594 L 15.0532,-24.0655 L 14.4659,-22.8152
 L 14.0339,-21.6234 L 13.8505,-21.44 L 13.5301,-21.2263 L 13.4883,-21.204 L 12.8736,-21.0682 L 12.4822,-21.0833
 L 12.2026,-21.2632 L 11.3817,-21.5883 L 10.5107,-21.746 L 9.62566,-21.7299 L 8.75853,-21.5406 L 7.94333,-21.1854
 L 7.21138,-20.6779 L 6.59082,-20.0377 L 6.10548,-19.2893 L 5.77403,-18.4616 L 5.60921,-17.5863 L 5.61736,-16.697
 L 5.79813,-15.8279 L 6.14459,-15.0125 L 6.64345,-14.2821 L 7.2755,-13.6647 L 7.46332,-13.5429 L 7.49361,-13.4967
 L 7.66515,-13.0242 L 7.662,-12.4225 L 7.34793,-11.6663 L 7.33405,-11.643 L 6.6709,-11.1525 L 6.11189,-10.8273
 L 6.04964,-10.7935 L 6.01451,-10.7137 L 5.95053,-10.5496 L 5.95505,-10.5074 L 6.0213,-10.0684 L 6.16484,-9.59947
 L 6.36499,-9.15976 L 6.55104,-8.8351 L 6.61403,-8.72791 L 6.93307,-8.27422 L 7.3018,-7.82091 L 7.70598,-7.47212
 L 7.84128,-7.37318 L 8.06047,-7.259 L 8.09143,-7.24422 L 8.32442,-7.18524 L 8.42384,-7.16983 L 8.54649,-7.16544
 L 8.72923,-7.17084 L 8.73395,-7.17203 L 9.32448,-7.47923 L 10.2217,-7.98442 L 11.2537,-8.40727 L 11.8072,-8.41788
 L 12.1933,-8.33923 L 12.6008,-8.01944 L 12.6787,-7.74103 L 12.5777,-7.24086 L 12.1852,-6.68527 L 11.4355,-6.18365
 L 9.56313,-5.18552 L 9.23495,-5.00645 L 9.11885,-4.91064 L 9.09084,-4.84535 L 9.06239,-4.74507 L 9.07576,-4.43916
 L 9.07487,-4.40306 L 9.08678,-4.3461 L 9.18161,-3.99402 L 9.30603,-3.64455 L 9.33485,-3.56738 L 9.44431,-3.35481
 L 9.56955,-3.10477 L 9.63564,-2.99496 L 9.89149,-2.60023 L 10.179,-2.23566 L 10.4332,-1.9606 L 10.5765,-1.81107
 L 10.9621,-1.51013 L 11.1847,-1.41431 L 11.3527,-1.3604 L 11.5028,-1.34137 L 11.6693,-1.32747 L 11.7634,-1.33571
 L 11.9187,-1.36368 L 13.0884,-2.01169 L 13.6165,-2.30038 L 14.6805,-2.89578 L 15.3806,-3.34645 L 16.0347,-3.91093
 L 16.7629,-4.47348 L 17.4209,-4.8156 L 17.9576,-4.84346 L 18.677,-4.71883 L 18.8665,-4.53583 L 19.9411,-3.66566
 L 21.0882,-2.88795 L 22.299,-2.20865 L 22.7619,-2.00095 L 23.2324,-1.41826 L 23.4126,-0.822357 L 23.5153,-0.131424
 L 23.3294,1.15222 L 23.1065,2.04243 L 23.0125,2.26527 L 22.534,2.59703 L 21.9134,3.23724 L 21.4281,3.98561
 L 21.0969,4.81285 L 20.9318,5.68867 L 20.9399,6.57796 L 21.1207,7.44699 L 21.4672,8.26239 L 21.8268,8.78905
 L 21.8474,8.8903 L 21.8394,9.43188 L 21.771,10.0917 L 21.5389,10.7909 L 21.1626,11.4015 L 20.956,11.6183
 L 20.5086,11.9627 L 20.1287,12.0082 L 19.0948,12.2195 L 18.9061,12.3505 L 18.7894,12.6573 L 18.6081,13.1949
 L 18.767,13.7 L 20.2532,15.9444 L 20.5276,16.157 L 20.6564,16.0859 L 21.9718,15.9339 L 30.1165,18.2324
 L 31.1758,19.0846 L 35.244,26.3522 L 35.4161,27.6997 L 33.2203,35.3253 L 33.4546,35.8806 L 34.8978,38.06
 L 35.2448,38.319 L 35.8651,37.9613 L 36.0228,37.7639 L 36.8133,36.5751 L 37.4965,35.3227 L 38.0673,34.016
 L 38.2539,33.5219 L 38.3832,33.361 L 39.1047,32.7926 L 39.5353,32.5587 L 40.5016,32.3865 L 41.5188,32.2982
 L 43.5226,32.2031 L 45.2529,32.109 L 48.3473,31.921 L 49.1445,31.8476 L 50.4059,31.7398 L 52.2721,31.5779
 L 54.1786,31.3916 L 55.1821,31.2975 L 55.912,31.283 L 56.2586,31.3266 L 56.7932,31.5411 L 56.9639,31.6477
 L 57.191,32.3228 L 57.7141,33.5336 L 58.3303,34.6812 L 59.035,35.7571 L 59.8229,36.7531 L 60.6879,37.6615
 L 61.6234,38.4754 L 62.6223,39.1887 L 63.5956,39.8643 L 64.6825,40.49 L 65.8186,41.0016 L 66.9953,41.3953
 L 68.2036,41.668 L 68.5719,41.7453 L 68.9094,41.7827 L 69.172,41.9772 L 69.3328,42.1917 L 69.4712,42.6705
 L 69.5578,43.3607 L 69.6019,44.7427 L 69.6315,46.148 L 69.6428,47.8238 L 69.648,49.5596 L 69.6369,51.2222
 L 69.6157,52.9569 L 69.5993,53.6372 L 69.5841,54.5806 L 69.5269,56.206 L 69.4674,58.2776 L 69.4133,59.2707
 L 69.2309,60.5693 L 68.8927,61.6307 L 68.6069,61.7266 L 67.4172,62.3295 L 66.2444,63.0124 L 65.0973,63.7701
 L 63.9846,64.5968 L 62.9149,65.4862 L 61.8962,66.4316 L 61.6756,66.6601 L 62.1316,68.4686 L 62.3483,69.0811
 L 62.455,69.3244 L 63.2905,71.1831 L 63.6798,71.7574 L 65.28,72.929 z
M 22.4267,-7.53712 L 21.339,-8.41786 L 17.3825,-15.619 L 17.2418,-16.974 L 19.5554,-24.3672 L 20.2882,-25.2209
 L 27.5606,-28.8625 L 29.0368,-28.978 L 37.3148,-26.4087 L 38.3802,-25.546 L 42.3152,-18.3842 L 42.4211,-17.3634
 L 40.0694,-9.84851 L 39.1933,-8.84949 L 31.8292,-5.16197 L 30.4764,-5.04489 z
M 84.4479,4.22786 L 78.2659,0.180008 L 77.473,-0.910461 L 74.8899,-8.87283 L 74.8809,-10.2543 L 77.3653,-17.485
 L 78.1456,-18.3483 L 82.7615,-20.0602 L 88.4765,-16.3077 L 88.5288,-16.2357 L 90.3273,-14.9932 L 92.4505,-10.6831
 L 93.6405,-7.01491 L 93.6494,-5.63338 L 93.2425,-4.44905 L 91.9703,-2.71941 L 91.0973,-1.4996 L 89.6774,2.65392
 L 89.4872,2.86432 L 85.4528,4.36208 z
M 9.76744,-15.5251 L 9.63062,-15.702 L 9.44777,-16.2145 L 9.4321,-16.7601 L 9.58516,-17.2853 L 9.89195,-17.7388
 L 10.3224,-18.0762 L 10.8345,-18.2643 L 11.378,-18.285 L 11.4981,-18.2507 L 11.6349,-18.0738 L 11.8177,-17.5613
 L 11.8334,-17.0158 L 11.6804,-16.4905 L 11.3736,-16.037 L 10.9431,-15.6997 L 10.431,-15.5115 L 9.88751,-15.4909
 z
M 40.6306,25.5 L 40.0351,25.3475 L 39.5139,25.1255 L 38.987,24.7189 L 38.7016,24.3597 L 38.6532,24.1306
 L 38.2451,22.7669 L 37.7187,21.4439 L 37.0782,20.1717 L 36.3283,18.9599 L 35.4747,17.8179 L 34.524,16.7542
 L 33.4834,15.7769 L 32.3609,14.8936 L 31.1648,14.1109 L 29.9045,13.4349 L 29.5637,13.3305 L 29.1791,12.9028
 L 28.9531,12.5209 L 28.8047,11.9589 L 28.8181,11.3689 L 29.0103,10.5204 L 29.0736,10.3871 L 29.3767,10.177
 L 29.9973,9.5368 L 30.4826,8.78845 L 30.8141,7.96071 L 30.9789,7.08537 L 30.9708,6.19641 L 30.79,5.32706
 L 30.4371,4.50006 L 30.1698,4.10983 L 30.1555,4.07774 L 30.1466,4.03888 L 30.0589,3.52113 L 30.0538,2.23978
 L 30.1912,1.37366 L 30.3503,0.822159 L 30.6378,0.230667 L 30.9961,-0.199356 L 31.5066,-0.522141 L 31.7414,-0.539749
 L 33.1048,-0.764069 L 34.4405,-1.10298 L 35.7382,-1.55385 L 36.9882,-2.11327 L 37.3941,-2.33081 L 38.623,-3.01471
 L 39.7836,-3.80089 L 40.867,-4.68333 L 41.8648,-5.65532 L 42.7696,-6.70949 L 43.5745,-7.83777 L 44.2732,-9.03163
 L 44.8606,-10.2819 L 44.9894,-10.6482 L 45.335,-11.0715 L 45.7276,-11.3541 L 45.9343,-11.4577 L 46.4501,-11.6092
 L 47.0249,-11.662 L 47.6589,-11.6615 L 49.1537,-11.4944 L 50.494,-11.3045 L 51.2929,-11.179 L 52.8488,-10.9791
 L 54.4228,-10.7551 L 56.2222,-10.4799 L 57.7771,-10.2191 L 59.0714,-9.99069 L 60.9932,-9.61453 L 62.2573,-9.37476
 L 63.8022,-9.0752 L 66.0328,-8.59959 L 67.1606,-8.30338 L 67.7319,-8.08925 L 68.3314,-7.78806 L 68.8753,-7.37988
 L 68.9635,-7.29109 L 68.9697,-7.00269 L 69.1693,-5.63092 L 69.4624,-4.27141 L 69.8466,-2.93448 L 70.3191,-1.63034
 L 70.8764,-0.368912 L 71.5141,0.84021 L 72.2273,1.98785 L 73.0108,3.06525 L 73.8585,4.06421 L 74.7639,4.97711
 L 75.6796,5.76402 L 75.8461,6.44791 L 75.7586,7.37012 L 75.5575,8.21877 L 75.338,8.72173 L 75.132,9.12614
 L 74.9365,9.33058 L 74.6954,9.44051 L 74.6377,9.45392 L 74.4707,9.41231 L 74.1024,9.33499 L 72.8716,9.18535
 L 71.6277,9.15985 L 70.3803,9.25873 L 69.1387,9.48122 L 68.0016,9.70332 L 66.8116,10.0376 L 65.6455,10.4876
 L 64.5122,11.05 L 63.4203,11.7204 L 62.3782,12.4938 L 61.3937,13.3643 L 60.4745,14.3253 L 59.6273,15.3694
 L 58.8589,16.4887 L 58.1748,17.6747 L 57.5804,18.9184 L 57.0802,20.2102 L 56.678,21.5404 L 56.3769,22.8988
 L 56.2726,23.6683 L 55.97,24.0059 L 55.914,24.05 L 55.2554,24.3923 L 54.3938,24.6056 L 52.6245,24.8264
 L 51.617,24.9056 L 49.9797,25.0621 L 48.6891,25.1631 L 45.5107,25.3894 L 44.3472,25.4657 L 42.9207,25.5385
 L 41.7378,25.5844 z
M 25.09,7.74979 L 24.9532,7.57294 L 24.7704,7.06044 L 24.7547,6.51488 L 24.9077,5.98964 L 25.2145,5.53615
 L 25.645,5.19878 L 26.1571,5.01059 L 26.7006,4.98997 L 26.8206,5.02426 L 26.9575,5.20111 L 27.1403,5.71361
 L 27.156,6.25919 L 27.0029,6.78442 L 26.6962,7.23792 L 26.2657,7.57527 L 25.7536,7.76346 L 25.2101,7.78407
 z
M 64.7548,35.0708 L 63.9574,34.0628 L 61.6919,26.3047 L 61.7859,24.9041 L 65.0859,17.2601 L 66.0163,16.2874
 L 72.9953,13.2216 L 73.7434,13.2369 L 79.0084,15.9306 L 79.4901,16.5396 L 81.8329,24.5624 L 81.7074,26.4305
 L 78.3384,34.271 L 76.9768,35.6943 L 71.0423,38.2841 z
" stroke="black" fill="lightgray" stroke-width="0.5"/></svg>
